<svg width="183" height="72" viewBox="0 0 183 72" fill="none" xmlns="http://www.w3.org/2000/svg">
<path d="M51.9767 39.4941L56.0165 38.3686C56.0832 39.2761 56.499 40.1198 57.1735 40.7163C57.9633 41.3848 58.972 41.7243 59.9973 41.6666C60.7613 41.711 61.5188 41.5002 62.1548 41.0665C62.3938 40.9041 62.59 40.6843 62.7262 40.4267C62.8624 40.169 62.9343 39.8812 62.9358 39.5885C62.9369 39.3458 62.8856 39.1059 62.7853 38.8859C62.685 38.6658 62.5383 38.4709 62.3556 38.3152C61.858 37.9137 61.2634 37.6561 60.6342 37.5694L57.7336 36.9054C56.2419 36.6253 54.8775 35.8659 53.8399 34.7387C52.9426 33.7148 52.4563 32.3844 52.4778 31.012C52.477 30.1552 52.6643 29.3091 53.0255 28.5355C53.3869 27.7619 53.9132 27.0803 54.5662 26.5406C55.9796 25.2886 57.8028 24.6228 59.6748 24.6751C60.626 24.664 61.5736 24.7978 62.4862 25.0718C63.2194 25.2827 63.9141 25.6132 64.5434 26.0506C65.0616 26.4304 65.5203 26.8876 65.9046 27.4069C66.2438 27.85 66.5264 28.3352 66.7457 28.8508C66.9192 29.2766 67.0424 29.722 67.1128 30.1774L63.2738 31.3029C63.2311 30.9798 63.1385 30.6656 62.9994 30.3719C62.8399 30.0347 62.6361 29.721 62.3937 29.4397C62.0932 29.1017 61.7174 28.8424 61.298 28.6836C60.7805 28.4806 60.2293 28.3817 59.6748 28.3926C58.9444 28.3654 58.2284 28.6034 57.6543 29.0645C57.408 29.2495 57.2072 29.4903 57.0678 29.7678C56.9283 30.0454 56.8542 30.3522 56.8511 30.6641C56.8482 30.9107 56.8948 31.1553 56.988 31.3828C57.0812 31.6104 57.2191 31.8162 57.3932 31.9873C57.7927 32.3751 58.2986 32.6297 58.8436 32.7173L61.7989 33.3369C63.3411 33.5947 64.7677 34.3316 65.8833 35.4468C66.8154 36.4318 67.3261 37.7531 67.3035 39.1212C67.3034 39.9454 67.1461 40.7616 66.8405 41.5246C66.5236 42.3128 66.0727 43.0379 65.5084 43.6664C64.8683 44.3594 64.0837 44.8972 63.2125 45.2399C62.1997 45.6507 61.1174 45.8543 60.0273 45.8389C58.8021 45.8586 57.5845 45.6401 56.4394 45.1955C55.4937 44.8427 54.6386 44.2764 53.9381 43.5392C53.3777 42.9348 52.9085 42.2489 52.5457 41.5041C52.2433 40.8727 52.0507 40.1927 51.9767 39.4941Z" fill="#153C3C"/>
<path d="M67.3159 29.4747V25.2979H68.3199C68.7348 25.3283 69.1514 25.2668 69.5408 25.1177C69.9302 24.9685 70.2833 24.7352 70.5758 24.4337C71.1048 23.8024 71.378 22.9893 71.34 22.1601V19.1429H75.5572V25.2979H79.6159V29.4747H75.5572V38.7698C75.5257 39.1146 75.5623 39.4625 75.6651 39.7926C75.7677 40.1229 75.9345 40.4287 76.1552 40.6921C76.6871 41.1345 77.3678 41.3475 78.0518 41.2856C78.5916 41.2867 79.1301 41.2327 79.6594 41.1242V45.026C78.7396 45.3589 77.7651 45.5071 76.79 45.4625C76.0051 45.5066 75.2195 45.3892 74.48 45.1172C73.7405 44.8453 73.0623 44.4246 72.4858 43.88C71.945 43.2999 71.5265 42.613 71.2561 41.8618C70.9858 41.1106 70.8693 40.3109 70.9139 39.5121V29.4747H67.3159Z" fill="#153C3C"/>
<path d="M80.7709 39.8767C80.7372 39.1121 80.8651 38.349 81.1459 37.6392C81.4268 36.9294 81.854 36.2893 82.3986 35.7624C83.5955 34.6842 85.088 34.0061 86.6749 33.8195L91.6953 33.0395C92.6622 32.9153 93.1457 32.4669 93.1457 31.6945C93.1554 31.3042 93.0772 30.9169 92.9171 30.562C92.7569 30.2073 92.519 29.8947 92.2219 29.6482C91.4181 29.0597 90.4367 28.7779 89.4495 28.8524C88.4176 28.7984 87.4055 29.1559 86.628 29.8495C85.9269 30.5122 85.4954 31.4189 85.4187 32.3903L81.1792 31.432C81.2675 30.5052 81.5344 29.6052 81.9645 28.7838C82.3947 27.9623 82.9798 27.2353 83.6861 26.6447C85.2831 25.2935 87.3141 24.5921 89.3881 24.6755C90.7018 24.6511 92.0096 24.86 93.2528 25.293C94.2531 25.6334 95.1574 26.2162 95.8879 26.9914C96.5241 27.6923 97.0131 28.5182 97.3249 29.4186C97.6431 30.3617 97.8008 31.3534 97.7912 32.3506V42.0242C97.775 43.0953 97.8601 44.1655 98.0456 45.22H93.641C93.4516 44.3883 93.3766 43.5339 93.4178 42.6813C92.8308 43.6092 92.0309 44.3775 91.0873 44.9199C89.9568 45.5625 88.6762 45.8804 87.3823 45.8395C85.6232 45.9186 83.9046 45.2884 82.5983 44.0854C82.0171 43.557 81.5534 42.9081 81.2381 42.1823C80.923 41.4564 80.7637 40.6704 80.7709 39.8767ZM85.4187 39.5356C85.4129 39.8767 85.4771 40.2152 85.6073 40.5295C85.7377 40.8438 85.931 41.1268 86.1751 41.3603C86.4586 41.6197 86.7897 41.8194 87.1493 41.9477C87.5089 42.0761 87.8899 42.1307 88.2703 42.1083C88.9024 42.1156 89.5318 42.0245 90.1368 41.8377C90.6985 41.6592 91.2224 41.3746 91.6808 40.9987C92.1761 40.5752 92.5497 40.0228 92.7618 39.4003C93.0337 38.6143 93.1637 37.7848 93.1457 36.9516V36.0522L88.0482 36.8481C87.3429 36.9413 86.6797 37.2428 86.1405 37.7155C85.8985 37.9472 85.7086 38.2295 85.584 38.5431C85.4595 38.8568 85.403 39.1942 85.4187 39.5321V39.5356Z" fill="#153C3C"/>
<path d="M100.934 45.2231V25.2983H105.426V27.7812C105.982 26.792 106.826 26.0034 107.841 25.5246C108.883 24.9959 110.032 24.7204 111.196 24.7197C112.441 24.6966 113.67 25.0004 114.766 25.6018C115.801 26.176 116.624 27.0784 117.108 28.1722C117.751 27.0594 118.683 26.1483 119.8 25.5393C120.917 24.9302 122.177 24.6466 123.442 24.7197C124.303 24.7131 125.159 24.8652 125.967 25.1687C126.761 25.4722 127.49 25.9267 128.118 26.5079C128.809 27.168 129.336 27.9865 129.654 28.8954C130.048 29.9826 130.239 31.1348 130.22 32.2934V45.2231H125.848V33.0132C125.901 31.9328 125.568 30.8692 124.909 30.0208C124.553 29.6302 124.114 29.3262 123.627 29.1313C123.139 28.9366 122.614 28.856 122.092 28.8954C121.543 28.8762 120.996 28.9806 120.491 29.2009C119.985 29.4214 119.534 29.7527 119.169 30.1709C118.411 31.0397 118.007 32.1716 118.043 33.3337V45.2231H113.395V33.0132C113.445 31.9378 113.116 30.8799 112.466 30.0311C112.11 29.6355 111.671 29.3277 111.181 29.1307C110.691 28.9337 110.165 28.8529 109.64 28.8942C109.088 28.8712 108.54 28.9712 108.031 29.1872C107.523 29.4033 107.067 29.7301 106.695 30.1448C105.94 31.0257 105.544 32.1681 105.589 33.3371V45.2264L100.934 45.2231Z" fill="#153C3C"/>
<path d="M133.568 53V25.2979H138.099V27.9673C138.67 26.9963 139.507 26.2155 140.506 25.7197C141.681 25.1137 142.983 24.8112 144.299 24.8387C145.547 24.7775 146.792 25.0072 147.94 25.5104C149.087 26.0134 150.107 26.7768 150.921 27.7422C152.589 29.8579 153.445 32.5187 153.332 35.2296C153.438 37.974 152.54 40.6608 150.813 42.7694C149.991 43.7402 148.963 44.5099 147.809 45.0214C146.653 45.5331 145.4 45.7736 144.142 45.7252C142.91 45.7494 141.689 45.4857 140.572 44.9545C139.632 44.5206 138.819 43.8448 138.213 42.9933V52.9977L133.568 53ZM138.177 35.2331C138.1 36.8902 138.622 38.5185 139.645 39.809C140.106 40.3706 140.683 40.8189 141.338 41.1203C141.992 41.4215 142.705 41.5678 143.422 41.5484C144.142 41.5692 144.856 41.4246 145.513 41.1251C146.17 40.8258 146.751 40.3794 147.216 39.8192C148.242 38.5264 148.764 36.8937 148.683 35.2331C148.76 33.5996 148.241 31.9952 147.226 30.7287C146.757 30.172 146.171 29.7298 145.512 29.4347C144.854 29.1395 144.138 28.9989 143.418 29.0234C142.703 29.0033 141.991 29.1473 141.337 29.445C140.683 29.7428 140.103 30.1866 139.641 30.7436C138.626 32.0031 138.104 33.6013 138.177 35.2296V35.2331Z" fill="#153C3C"/>
<path d="M153.672 39.4941L157.711 38.3686C157.778 39.2761 158.195 40.1198 158.868 40.7163C159.658 41.3849 160.668 41.7244 161.694 41.6666C162.457 41.7108 163.215 41.5 163.85 41.0665C164.09 40.9041 164.285 40.6843 164.421 40.4267C164.558 40.169 164.63 39.8812 164.631 39.5885C164.633 39.3458 164.581 39.1059 164.481 38.8859C164.38 38.6658 164.234 38.4709 164.051 38.3152C163.554 37.9137 162.959 37.656 162.33 37.5694L159.43 36.9054C157.939 36.6255 156.574 35.8661 155.538 34.7387C154.64 33.7154 154.152 32.3846 154.174 31.012C154.174 30.1552 154.361 29.3091 154.722 28.5355C155.083 27.7619 155.61 27.0803 156.262 26.5406C157.677 25.2886 159.499 24.6228 161.371 24.6751C162.323 24.664 163.27 24.7978 164.183 25.0718C164.916 25.2825 165.611 25.6131 166.239 26.0506C166.758 26.4307 167.217 26.8879 167.603 27.4069C167.941 27.8502 168.223 28.3354 168.443 28.8508C168.615 29.2766 168.738 29.722 168.809 30.1774L164.971 31.3029C164.928 30.9799 164.835 30.6656 164.697 30.3719C164.537 30.0348 164.332 29.7213 164.09 29.4397C163.789 29.1017 163.414 28.8424 162.995 28.6836C162.477 28.4805 161.925 28.3816 161.371 28.3926C160.641 28.3654 159.926 28.6036 159.352 29.0645C159.106 29.2493 158.904 29.49 158.765 29.7677C158.625 30.0452 158.55 30.3521 158.548 30.6641C158.545 30.9107 158.591 31.1553 158.684 31.3828C158.777 31.6104 158.915 31.8162 159.089 31.9873C159.49 32.3749 159.995 32.6294 160.54 32.7173L163.494 33.3369C165.037 33.5945 166.464 34.3314 167.58 35.4468C168.511 36.4322 169.022 37.7533 168.999 39.1212C168.999 39.9454 168.841 40.7618 168.536 41.5246C168.219 42.3131 167.768 43.0383 167.204 43.6664C166.564 44.3595 165.78 44.8972 164.907 45.2399C163.896 45.6507 162.814 45.8541 161.724 45.8389C160.499 45.8587 159.279 45.6403 158.135 45.1955C157.189 44.8424 156.334 44.2761 155.635 43.5392C155.074 42.9348 154.605 42.2489 154.242 41.5041C153.94 40.8726 153.747 40.1926 153.672 39.4941Z" fill="#153C3C"/>
<path d="M18.2263 24.9348C18.2466 24.8804 18.2611 24.8241 18.2698 24.7666C18.4108 23.7441 18.9272 22.8142 19.7146 22.1643C20.2723 21.7113 20.9393 21.4195 21.6458 21.3196C21.6925 21.3125 21.7385 21.3007 21.783 21.2843C21.9216 21.2697 22.0609 21.2625 22.2002 21.2628C23.1623 21.2571 24.093 21.6101 24.8171 22.2556C25.5411 22.9011 26.0084 23.7943 26.1306 24.7666C26.1437 24.9207 26.2135 25.0642 26.3261 25.1679C26.4387 25.2718 26.5857 25.3282 26.7375 25.3259H26.8816C27.0335 25.3287 27.1808 25.2725 27.2935 25.1686C27.4063 25.0647 27.4759 24.921 27.4885 24.7666C27.6054 23.7966 28.0675 22.9042 28.7872 22.2584C29.507 21.6124 30.4342 21.2582 31.3932 21.2628C32.3552 21.2571 33.2859 21.6101 34.01 22.2556C34.7341 22.9011 35.2013 23.7943 35.3236 24.7666C35.3365 24.9207 35.4063 25.0642 35.519 25.1679C35.6316 25.2718 35.7786 25.3282 35.9305 25.3259H36.0421C36.194 25.3287 36.3414 25.2725 36.4541 25.1686C36.5668 25.0647 36.6365 24.921 36.649 24.7666C36.7705 23.7986 37.234 22.909 37.9527 22.2641C38.6714 21.6191 39.5961 21.2632 40.5538 21.2628C41.5885 21.2626 42.5822 21.6756 43.3216 22.4133C44.0469 23.1683 44.4526 24.183 44.4518 25.2396C44.4519 26.2156 44.1026 27.1584 43.4693 27.8909C42.8361 28.6234 41.9625 29.0954 41.0123 29.2185C40.8608 29.2312 40.7197 29.3022 40.6178 29.4171C40.5158 29.5321 40.4606 29.6822 40.4633 29.8371V29.9507C40.4611 30.1055 40.5165 30.2552 40.6184 30.3701C40.7203 30.4848 40.861 30.5559 41.0123 30.5691C41.9665 30.6932 42.8433 31.169 43.4769 31.9068C44.1107 32.6444 44.4574 33.5929 44.4518 34.5732C44.4562 35.5506 44.1084 36.4957 43.4744 37.2291C42.8405 37.9626 41.9643 38.4334 41.0123 38.5523C40.8608 38.5649 40.7197 38.6359 40.6178 38.7508C40.5158 38.8657 40.4606 39.0159 40.4633 39.1707V39.3185C40.4613 39.4732 40.5169 39.6229 40.6186 39.7375C40.7205 39.8523 40.8611 39.9235 41.0123 39.937C41.9665 40.0611 42.8433 40.5369 43.4769 41.2746C44.1107 42.0122 44.4574 42.9606 44.4518 43.941C44.4518 44.0729 44.4452 44.2026 44.4329 44.331C44.4122 44.3854 44.3972 44.4417 44.3883 44.4992C44.2481 45.5218 43.7322 46.452 42.9446 47.1015C42.3864 47.5546 41.719 47.8463 41.0123 47.9462C40.9661 47.9537 40.9206 47.9651 40.8762 47.9803C40.7372 47.9954 40.5975 48.003 40.4578 48.003C39.4959 48.0087 38.5653 47.6555 37.8414 47.0101C37.1175 46.3646 36.6506 45.4715 36.5285 44.4992C36.5155 44.3451 36.4457 44.2017 36.3331 44.0978C36.2205 43.994 36.0734 43.9376 35.9215 43.9399H35.7765C35.6245 43.9371 35.4773 43.9934 35.3645 44.0972C35.2518 44.2012 35.182 44.3448 35.1696 44.4992C35.0529 45.4692 34.5908 46.362 33.8711 47.0078C33.1513 47.6537 32.2238 48.0078 31.2649 48.003C30.3029 48.0088 29.3722 47.6556 28.6481 47.0102C27.924 46.3646 27.4568 45.4716 27.3345 44.4992C27.3215 44.3451 27.2516 44.2017 27.139 44.0978C27.0265 43.994 26.8793 43.9376 26.7276 43.9399H26.616C26.464 43.9371 26.3167 43.9934 26.204 44.0972C26.0913 44.2012 26.0215 44.3448 26.009 44.4992C25.888 45.4674 25.4246 46.3573 24.7059 47.0023C23.987 47.6474 23.0621 48.0031 22.1043 48.003C21.0673 48.0045 20.0711 47.5914 19.3296 46.8525C18.6048 46.0973 18.1995 45.0827 18.2006 44.0263C18.2006 43.0503 18.5496 42.1078 19.1826 41.3753C19.8156 40.6429 20.6889 40.1706 21.6391 40.0472C21.7908 40.0348 21.9321 39.964 22.0343 39.8491C22.1365 39.7341 22.1919 39.5839 22.189 39.4288V39.3151C22.191 39.1603 22.1354 39.0105 22.0333 38.8957C21.9313 38.781 21.7904 38.7099 21.6391 38.6967C20.685 38.5723 19.8086 38.0964 19.1751 37.3588C18.5417 36.6212 18.195 35.6727 18.2006 34.6926C18.196 33.7153 18.5436 32.7703 19.1773 32.0368C19.8112 31.3033 20.6871 30.8324 21.6391 30.7135C21.7908 30.7011 21.9321 30.6302 22.0343 30.5154C22.1365 30.4005 22.1919 30.2501 22.189 30.0951V29.9473C22.191 29.7925 22.1354 29.6426 22.0333 29.5279C21.9313 29.4131 21.7904 29.342 21.6391 29.3288C20.685 29.2045 19.8086 28.7285 19.1751 27.9909C18.5417 27.2533 18.195 26.3049 18.2006 25.3248C18.2006 25.1929 18.2073 25.0634 18.2196 24.9348H18.2263ZM21.6491 20.0202C21.6008 20.0074 21.5516 19.9987 21.5019 19.994C20.1866 20.1808 18.9889 20.8666 18.1483 21.9142C17.5133 22.685 17.105 23.6229 16.9702 24.6199C16.9734 24.6632 16.9801 24.7062 16.9902 24.7484C16.9731 24.9202 16.9646 25.0929 16.9646 25.2657C16.9726 26.2243 17.2312 27.1633 17.7137 27.9862C18.1964 28.809 18.8855 29.486 19.7101 29.9473C18.8853 30.4087 18.1961 31.0859 17.7135 31.9089C17.231 32.732 16.9724 33.6713 16.9646 34.6301C16.9726 35.5887 17.2312 36.5277 17.7137 37.3505C18.1964 38.1735 18.8855 38.8505 19.7101 39.3117C18.8804 39.7672 18.1872 40.4429 17.7038 41.2674C17.2204 42.0917 16.9649 43.034 16.9646 43.9944C16.9646 44.1434 16.9711 44.29 16.9823 44.4367C16.9664 44.5044 16.9612 44.5743 16.9668 44.6436C17.12 45.814 17.6487 46.9 18.4706 47.7325C19.2875 48.57 20.3532 49.1088 21.5019 49.265C21.5703 49.2707 21.6392 49.2654 21.706 49.2491C21.8488 49.2616 21.9938 49.2673 22.14 49.2673C23.0822 49.2669 24.0069 49.0066 24.8158 48.5141C25.6246 48.0214 26.2876 47.3149 26.7342 46.4694C27.1868 47.3099 27.8509 48.0123 28.6585 48.504C29.4661 48.9958 30.3878 49.2593 31.3284 49.2673C32.2693 49.2595 33.1912 48.9961 33.9991 48.5043C34.8068 48.0125 35.4712 47.31 35.9238 46.4694C36.3763 47.3099 37.0405 48.0123 37.8481 48.504C38.6557 48.9958 39.5773 49.2593 40.518 49.2673C40.6843 49.2673 40.8528 49.2593 41.0112 49.2434C41.0598 49.2564 41.1095 49.2647 41.1596 49.2684C42.4726 49.0814 43.668 48.396 44.5064 47.3493C45.1418 46.5787 45.5506 45.6407 45.6857 44.6436C45.6823 44.6003 45.6756 44.5574 45.6657 44.5152C45.6823 44.3447 45.6902 44.1742 45.6902 43.9979C45.6823 43.0394 45.424 42.1003 44.9415 41.2775C44.4591 40.4546 43.7702 39.7776 42.9457 39.3162C43.7703 38.8548 44.4593 38.1776 44.9419 37.3546C45.4242 36.5314 45.6826 35.5922 45.6902 34.6335C45.6823 33.675 45.424 32.7359 44.9415 31.9131C44.4591 31.0902 43.7702 30.4132 42.9457 29.9518C43.7752 29.4962 44.4683 28.8205 44.9514 27.996C45.4346 27.1716 45.6898 26.2293 45.6902 25.2691C45.6902 25.1202 45.6846 24.9723 45.6734 24.8268C45.6883 24.759 45.6935 24.6894 45.689 24.6199C45.5362 23.4491 45.007 22.3628 44.1841 21.531C43.3679 20.6932 42.3024 20.1542 41.154 19.9985C41.0855 19.9928 41.0165 19.9982 40.9498 20.0145C40.807 20.002 40.6619 19.9962 40.5158 19.9962C39.5735 19.9966 38.649 20.2569 37.84 20.7496C37.0312 21.2421 36.3683 21.9486 35.9215 22.7941C35.469 21.9535 34.8045 21.251 33.9968 20.7592C33.189 20.2674 32.2671 20.0041 31.3262 19.9962C30.3855 20.0042 29.4639 20.2677 28.6563 20.7595C27.8487 21.2512 27.1845 21.9536 26.732 22.7941C26.2794 21.9535 25.615 21.251 24.8073 20.7592C23.9994 20.2674 23.0775 20.0041 22.1366 19.9962C21.9705 19.9962 21.802 20.0042 21.6435 20.0202H21.6491Z" fill="#153C3C"/>
<path d="M41.1891 50.2662L41.0864 50.2583C41.044 50.2583 41.0006 50.2491 40.9582 50.2436C40.8132 50.2537 40.6659 50.2594 40.5197 50.2594C39.3879 50.2578 38.2786 49.937 37.3144 49.3329C36.8011 49.0128 36.335 48.62 35.9299 48.1664C35.3469 48.8205 34.6371 49.3442 33.8454 49.7044C33.0536 50.0647 32.1972 50.2536 31.3301 50.2594C30.1983 50.2578 29.089 49.937 28.1249 49.3329C27.6132 49.0133 27.1482 48.6218 26.7437 48.1698C26.3426 48.6227 25.8797 49.0143 25.3692 49.3329C24.3977 49.9388 23.2807 50.2594 22.1416 50.2594C22.0123 50.2594 21.8818 50.2594 21.7523 50.247C21.645 50.2605 21.5366 50.2628 21.4287 50.2537H21.3731C20.6884 50.1601 20.0237 49.9516 19.4061 49.6364C18.8058 49.3292 18.2584 48.9251 17.7851 48.4394C17.3085 47.9573 16.9121 47.3994 16.6115 46.7874C16.3012 46.1584 16.096 45.481 16.0046 44.7832V44.7263C15.9967 44.6163 15.999 44.506 16.0113 44.3966C16.0034 44.2648 16.0001 44.1317 16.0001 44.001C15.9996 42.8403 16.3139 41.7021 16.9082 40.7119C17.2205 40.1909 17.6053 39.7187 18.0505 39.3103C17.6062 38.8986 17.2216 38.4247 16.9082 37.9028C16.3157 36.9202 16.0013 35.7899 16.0001 34.6365C16.0057 33.7532 16.191 32.8804 16.5444 32.0736C16.8976 31.2669 17.4113 30.5435 18.0528 29.9493C17.6077 29.5365 17.2223 29.0616 16.9082 28.5384C16.3157 27.5558 16.0013 26.4254 16.0001 25.2721C16.0001 25.1142 16.0057 24.9549 16.0179 24.797C16.0134 24.7652 16.01 24.7333 16.0078 24.7015L16.0001 24.5969L16.0134 24.4922C16.1726 23.3119 16.6556 22.2014 17.4069 21.2886C18.4007 20.0463 19.8194 19.2339 21.3774 19.0148L21.4801 19L21.5838 19.008C21.6263 19.008 21.6687 19.0171 21.7111 19.0228C21.8572 19.0126 22.0045 19.0068 22.1495 19.0068C23.2816 19.0089 24.3913 19.3295 25.3558 19.9335C25.8688 20.2536 26.3346 20.6464 26.7392 21.0998C27.3223 20.4459 28.032 19.9222 28.8238 19.5619C29.6155 19.2017 30.4721 19.0127 31.339 19.0068C32.4712 19.0089 33.5808 19.3295 34.5454 19.9335C35.0572 20.2531 35.5221 20.6446 35.9265 21.0964C36.3277 20.6437 36.7905 20.2521 37.301 19.9335C38.2726 19.3275 39.3895 19.0067 40.5286 19.0068C40.6581 19.0068 40.7886 19.0068 40.9169 19.0194C41.0245 19.0057 41.1334 19.0034 41.2415 19.0126H41.2962C41.9809 19.106 42.6455 19.3145 43.2631 19.6298C43.8639 19.9366 44.4118 20.3409 44.8852 20.827C45.3624 21.3085 45.7589 21.8666 46.0589 22.4788C46.3683 23.1081 46.5731 23.7855 46.6647 24.4832V24.54C46.6726 24.6499 46.6701 24.7603 46.6568 24.8697C46.6647 25.0016 46.6691 25.1334 46.6691 25.2653C46.6693 26.4261 46.3546 27.5643 45.7599 28.5543C45.448 29.0754 45.0636 29.5475 44.6186 29.956C45.0629 30.3674 45.4472 30.8414 45.7599 31.3635C46.3528 32.3459 46.6675 33.4764 46.6691 34.6297C46.6636 35.5134 46.4782 36.3861 46.1246 37.1929C45.7711 37.9997 45.2572 38.723 44.6152 39.3171C45.0605 39.7293 45.4458 40.2039 45.7599 40.7268C46.3525 41.7097 46.6672 42.8404 46.6691 43.9941C46.6691 44.1522 46.6636 44.3113 46.6513 44.4683C46.6513 44.5001 46.6591 44.533 46.6613 44.5649L46.6691 44.6695L46.6546 44.7741C46.4961 45.9542 46.0134 47.0648 45.2624 47.9778C44.2683 49.2202 42.8491 50.0327 41.2906 50.2514L41.1891 50.2662ZM37.4986 44.3818C37.5915 45.1134 37.9444 45.7849 38.4905 46.2692C39.0365 46.7536 39.7378 47.0172 40.4617 47.0102C40.5409 47.0102 40.6191 47.0103 40.6971 47.0012C40.7495 46.9875 40.802 46.9761 40.8555 46.9671H40.8845C41.4151 46.8913 41.916 46.6718 42.3349 46.3315C42.9296 45.8418 43.3193 45.1398 43.4249 44.3681V44.3397C43.4358 44.2723 43.4504 44.2055 43.4684 44.1397C43.4684 44.0749 43.4751 44.0089 43.4751 43.9442C43.4816 43.2062 43.2227 42.4914 42.7473 41.9348C42.2718 41.3783 41.6127 41.0185 40.8946 40.9234C40.5066 40.8822 40.1476 40.6954 39.8873 40.3993C39.6271 40.1033 39.4843 39.7191 39.4867 39.3215V39.1738C39.4836 38.7846 39.6204 38.4078 39.8714 38.1146C40.1224 37.8214 40.4701 37.632 40.8488 37.5821H40.9057C41.6173 37.4876 42.2705 37.1316 42.743 36.5811C43.2154 36.0307 43.4745 35.3234 43.4718 34.5922C43.4783 33.8543 43.2194 33.1395 42.744 32.583C42.2684 32.0264 41.6093 31.6666 40.8912 31.5715C40.5033 31.5303 40.1443 31.3435 39.8841 31.0474C39.6237 30.7514 39.4809 30.3673 39.4833 29.9697V29.8561C39.4802 29.4669 39.617 29.0901 39.868 28.7969C40.119 28.5035 40.4667 28.3142 40.8455 28.2644H40.9024C41.6108 28.1624 42.2598 27.8044 42.7309 27.2555C43.2019 26.7066 43.4637 26.0035 43.4684 25.2744C43.4701 24.4805 43.1671 23.7176 42.6238 23.1485C42.0655 22.5947 41.3167 22.2859 40.5376 22.2879C39.8199 22.2851 39.1259 22.5491 38.5858 23.0304C38.0456 23.5118 37.6963 24.1775 37.6033 24.9027V24.9606C37.5546 25.3466 37.3687 25.7009 37.0809 25.9567C36.7932 26.2125 36.4233 26.352 36.0415 26.3487H35.9299C35.5397 26.3513 35.1626 26.2057 34.8719 25.9405C34.5812 25.6754 34.3976 25.3095 34.3569 24.914C34.2637 24.1822 33.9105 23.5107 33.3644 23.0261C32.8181 22.5416 32.1168 22.2777 31.3926 22.2845C30.675 22.2817 29.9811 22.5456 29.4408 23.0271C28.9006 23.5085 28.5513 24.1741 28.4585 24.8993V24.9572C28.4097 25.3431 28.2238 25.6975 27.936 25.9533C27.6482 26.209 27.2784 26.3485 26.8965 26.3453H26.7526C26.3625 26.3479 25.9853 26.2023 25.6947 25.9371C25.4039 25.672 25.2202 25.3061 25.1796 24.9107C25.0863 24.1788 24.7332 23.5072 24.1871 23.0227C23.6409 22.5383 22.9394 22.2743 22.2153 22.281C22.1372 22.281 22.058 22.281 21.9798 22.2913C21.9285 22.305 21.8751 22.3163 21.8215 22.3254H21.7925C21.2619 22.4008 20.7608 22.6203 20.3422 22.961C19.7467 23.4501 19.3569 24.1523 19.2522 24.9243V24.9527C19.2412 25.0201 19.2267 25.0869 19.2087 25.1528C19.2087 25.2176 19.2031 25.2836 19.2031 25.3483C19.1965 26.0861 19.4552 26.8007 19.9305 27.3573C20.4057 27.9138 21.0645 28.2738 21.7824 28.369C22.1703 28.4102 22.5295 28.597 22.7897 28.8931C23.05 29.1892 23.1928 29.5734 23.1904 29.9708V30.1186C23.1935 30.5076 23.0568 30.8843 22.8061 31.1775C22.5553 31.4707 22.2079 31.6603 21.8294 31.7102H21.7713C21.0596 31.8047 20.4062 32.1606 19.9337 32.711C19.4613 33.2616 19.2023 33.9689 19.2053 34.7002C19.1985 35.4379 19.4572 36.1524 19.9325 36.7089C20.4078 37.2653 21.0668 37.625 21.7846 37.7197C22.1727 37.7615 22.5316 37.9487 22.7918 38.2448C23.0519 38.5411 23.1948 38.9252 23.1926 39.3227V39.4364C23.1957 39.8254 23.0591 40.202 22.8083 40.4953C22.5575 40.7885 22.2101 40.978 21.8315 41.028H21.7736C21.065 41.13 20.4161 41.4881 19.945 42.0369C19.474 42.5858 19.2123 43.2888 19.2076 44.0181C19.2056 44.8116 19.5088 45.5743 20.052 46.1428C20.6101 46.697 21.3592 47.006 22.1383 47.0035C22.8538 46.9984 23.5436 46.7315 24.0822 46.2515C24.6208 45.7717 24.9722 45.1105 25.0725 44.3886V44.3591L25.0781 44.3294C25.1272 43.9438 25.3131 43.5897 25.6008 43.3341C25.8886 43.0786 26.2583 42.9393 26.6399 42.9425H26.7515C27.1417 42.9401 27.5188 43.0856 27.8096 43.3508C28.1003 43.6159 28.2839 43.9818 28.3246 44.3772C28.4179 45.1089 28.771 45.7804 29.3172 46.2647C29.8634 46.7491 30.5649 47.0127 31.2888 47.0057C32.0066 47.0088 32.7007 46.7448 33.2409 46.2633C33.7812 45.7819 34.1303 45.1161 34.223 44.3909V44.3614L34.2286 44.333C34.2773 43.9469 34.4632 43.5926 34.751 43.3369C35.0388 43.081 35.4086 42.9416 35.7905 42.9448H35.9355C36.3243 42.945 36.6992 43.092 36.988 43.3573C37.2767 43.6228 37.4586 43.9878 37.4986 44.3818Z" fill="#153C3C"/>
<path d="M31.344 38.5096C30.6393 38.5117 29.9412 38.3713 29.2901 38.0965C28.639 37.8217 28.0479 37.4181 27.5509 36.9089C27.0513 36.4024 26.6551 35.8001 26.3856 35.1365C26.116 34.4731 25.9781 33.7616 25.98 33.0435C25.98 32.7217 26.1054 32.4131 26.3287 32.1854C26.5519 31.9577 26.8547 31.8296 27.1704 31.8294C27.4863 31.8296 27.789 31.9577 28.0123 32.1854C28.2355 32.4131 28.3609 32.7217 28.3609 33.0435C28.362 33.8494 28.6767 34.6217 29.2359 35.1914C29.7952 35.7611 30.5534 36.0816 31.344 36.0824C32.1348 36.0816 32.893 35.7611 33.4521 35.1914C34.0114 34.6217 34.3261 33.8494 34.3273 33.0435C34.3272 32.8842 34.3579 32.7263 34.4175 32.579C34.4773 32.4317 34.565 32.2978 34.6755 32.185C34.7861 32.0723 34.9174 31.9828 35.0618 31.9218C35.2064 31.8608 35.3613 31.8294 35.5178 31.8294C35.8335 31.8296 36.1363 31.9577 36.3595 32.1854C36.5827 32.4131 36.7081 32.7217 36.7081 33.0435C36.7101 33.7616 36.5721 34.473 36.3025 35.1365C36.0329 35.8 35.6368 36.4024 35.1373 36.9089C34.6402 37.4181 34.0491 37.8216 33.398 38.0965C32.7468 38.3712 32.0489 38.5117 31.344 38.5096Z" fill="#153C3C"/>
</svg>
