<svg width="183" height="72" viewBox="0 0 183 72" fill="none" xmlns="http://www.w3.org/2000/svg">
<path d="M62.5514 48.1904V48.4156H52.9968V48.1904C54.0705 48.0028 54.4934 47.7399 54.6081 46.9143V34.4526C54.6081 32.1615 53.7644 31.0353 52.0376 31.0353C51.4667 31.0466 50.9142 31.2343 50.459 31.5715C50.0037 31.9086 49.669 32.3781 49.5027 32.9126C49.581 33.3466 49.6198 33.7865 49.6183 34.2273V45.9429C49.6183 47.3321 50.0401 47.8957 51.3421 48.1953V48.4206H42.2102V48.1904C43.5143 47.8927 43.934 47.3271 43.934 45.9379V34.4476C43.934 32.1565 43.0508 31.0303 41.3626 31.0303C40.8258 31.0352 40.3041 31.2043 39.8705 31.5142C39.4369 31.824 39.1134 32.2589 38.9453 32.7578V45.9379C38.9453 47.3271 39.3671 47.8907 40.669 48.1904V48.4156H31V48.1904C32.4955 47.8531 33.2631 47.214 33.2631 45.7097V33.7392C33.2631 31.7487 32.7267 31.1474 31 30.9975V30.7723L38.9423 28.632V32.1615C39.2769 31.0845 39.9668 30.1466 40.9041 29.4943C41.8415 28.8421 42.9734 28.5122 44.1226 28.5565C47.0002 28.5565 48.8041 29.9834 49.379 32.3123C49.753 31.1956 50.4854 30.2268 51.4671 29.5502C52.4489 28.8735 53.6277 28.525 54.8281 28.5565C58.3973 28.5565 60.2771 30.8099 60.2771 34.2273V45.7176C60.2872 47.2189 61.0547 47.858 62.5514 48.1904Z" fill="#153C3C"/>
<path d="M82.8517 44.3285C82.1997 47.4044 80.1657 48.9851 77.4776 48.9851C76.9932 49.0284 76.5046 48.9771 76.0406 48.8338C75.5766 48.6906 75.1465 48.4584 74.775 48.151C74.4036 47.8434 74.0984 47.4667 73.8772 47.0427C73.656 46.6185 73.5233 46.1557 73.4866 45.681L73.4106 45.3832C73.0599 46.4722 72.3498 47.4166 71.3918 48.0683C70.4339 48.7202 69.2821 49.0426 68.1168 48.9851C67.4577 49.0353 66.7951 48.951 66.1711 48.7374C65.5471 48.5238 64.9751 48.1856 64.4917 47.7443C64.0084 47.3031 63.6239 46.7683 63.3627 46.174C63.1017 45.5796 62.9696 44.9386 62.975 44.2918C62.975 40.9498 65.738 38.7718 70.1508 37.8699L73.3356 37.2319V36.4381C73.3356 33.5466 72.2609 31.5571 69.0374 31.5571C66.5441 31.5571 64.7788 32.721 63.9342 35.6501L63.63 35.5748C64.2384 31.2565 67.1596 28.5526 71.688 28.5526C76.7911 28.5526 79.0168 31.7446 79.0168 36.5511V44.0983C79.0168 45.413 79.6688 46.0887 80.5135 46.0887C81.2425 46.0887 82.0861 45.676 82.508 44.2868L82.8517 44.3285ZM73.3356 44.7422V38.1695L71.839 38.4325C68.8458 39.0338 68.2709 40.8734 68.2709 42.7131C68.2709 44.6281 69.2301 46.1304 71.0715 46.1304C71.5509 46.1659 72.0293 46.0504 72.4367 45.8006C72.8442 45.5508 73.1591 45.1799 73.3356 44.7422Z" fill="#153C3C"/>
<path d="M103.689 48.1913V48.4165H94.0201V48.1913C95.2865 47.8937 95.7438 47.328 95.7438 45.9388V34.4912C95.7438 32.2001 94.8616 31.0361 93.0578 31.0361C92.4462 31.031 91.8468 31.2029 91.3347 31.5301C90.8227 31.8575 90.4211 32.3257 90.1801 32.8758V45.9438C90.1801 47.333 90.602 47.8966 91.904 48.1963V48.4215H82.2358V48.1913C83.7324 47.854 84.5 47.2149 84.5 45.7106V33.74C84.5 31.7496 83.9625 31.1482 82.2358 30.9984V30.7732L90.1792 28.6329V32.3151C90.5683 31.1696 91.3316 30.1811 92.3514 29.502C93.3713 28.823 94.5912 28.4911 95.8229 28.5574C99.4732 28.5574 101.425 30.7405 101.425 34.265V45.7185C101.426 47.2198 102.194 47.8589 103.689 48.1913Z" fill="#153C3C"/>
<path d="M116.736 43.9902C115.893 46.7309 113.821 48.9843 110.482 48.9843C107.259 48.9843 105.723 46.9939 105.723 44.0657V29.9458H103.499V29.7582C106.556 28.0719 109.211 25.7681 111.288 23H111.442V29.1957H115.317V29.9458H111.437V43.2014C111.437 44.929 112.167 46.0928 113.586 46.0928C114.246 46.0918 114.885 45.8722 115.4 45.4698C115.916 45.0675 116.277 44.506 116.425 43.8771L116.736 43.9902Z" fill="#153C3C"/>
<path d="M132.662 41.6252C131.702 47.032 128.211 48.9849 124.873 48.9849C120.421 48.9849 116.355 45.6052 116.355 39.1466C116.355 32.9885 119.847 28.5572 125.104 28.5572C128.826 28.5572 132.663 30.8483 132.624 37.044H120.806C121.19 41.8504 123.723 44.5167 127.445 44.5167C128.486 44.6104 129.531 44.3722 130.423 43.8375C131.315 43.3028 132.007 42.5004 132.394 41.5499L132.662 41.6252ZM120.766 35.6885V36.1013H127.404C127.443 31.2949 126.177 29.6051 124.261 29.6051C122.11 29.609 120.766 31.9368 120.766 35.6885Z" fill="#153C3C"/>
<path d="M147.36 28.5572V33.965H147.169C146.542 33.6953 145.857 33.5791 145.173 33.6266C142.679 33.6266 141.029 34.9414 141.029 39.9354V45.7183C141.029 47.4051 141.988 47.933 144.059 48.199V48.4242H133.086V48.191C134.582 47.8536 135.35 47.2146 135.35 45.7104V34.0772C135.35 31.9368 134.774 31.1857 133.086 31.0358V30.8106L140.798 28.6327V37.044H140.991C141.295 30.9982 143.6 28.5572 146.939 28.5572H147.36Z" fill="#153C3C"/>
<path d="M145.672 45.8304C145.685 45.0116 146.027 44.2306 146.622 43.6554C147.218 43.0802 148.02 42.7567 148.856 42.7544C149.687 42.7652 150.48 43.0927 151.067 43.6673C151.655 44.2418 151.989 45.018 152 45.8304C152.005 46.6512 151.676 47.4403 151.086 48.0245C150.498 48.6088 149.695 48.9406 148.856 48.9471C148.438 48.9481 148.024 48.8683 147.636 48.712C147.25 48.5558 146.898 48.3262 146.602 48.0365C146.306 47.7469 146.071 47.403 145.912 47.0243C145.752 46.6458 145.671 46.24 145.672 45.8304Z" fill="#153C3C"/>
</svg>
