<svg width="183" height="72" viewBox="0 0 183 72" fill="none" xmlns="http://www.w3.org/2000/svg">
<path d="M68.7545 25.2176L60.2046 29.8154L58.5682 30.7105L60.5727 21.8404L55.5817 26.4789L52.1453 10L49.6499 22.0031L41.1408 12.8482L24 22.7763L36.1089 35.7559V52.8044L52.1453 62L68.1818 52.8044V34.3725L65.3182 32.7043L68.7545 25.2176ZM28.459 23.4273L40.5682 16.4288L48.9136 25.421L48.6681 26.5196L43.6771 21.8404L45.6818 30.7105L44.0454 29.8154L35.4953 25.2176L38.9726 32.745L37.7862 33.4367L28.459 23.4273ZM50.7136 57.9719L38.9318 51.2175V37.6276L50.7136 44.3819V57.9719ZM44.2499 37.4649L42.6137 33.925L41.6316 31.7684L44.0862 33.1112L49.8135 36.2034L48.5455 30.5478L48.4635 30.2223L48.7091 30.4664L50.4271 32.0533L51.9817 24.648L52.1453 23.9563L52.3908 25.0955L53.25 29.1644L53.8637 32.0939L55.5817 30.5071L55.8272 30.263L55.7453 30.5884L54.4773 36.2442L60.2046 33.1518L62.6591 31.8091L61.6771 33.9656L60.0407 37.5055L52.1453 42.0626L44.2499 37.4649ZM65.3589 37.6276V51.1769L53.5772 57.9312V44.4226L65.3589 37.6276Z" fill="#153C3C"/>
<path d="M89.9863 33.6407V36.3669H100.459V40.1509H89.9863V43.0398H100.949V46.7424H85.4044V29.9787H100.827V33.6407H89.9863Z" fill="#153C3C"/>
<path d="M106.473 46.742H101.441L107.086 40.4759L101.277 34.2505H106.678L109.909 37.7498L113.018 34.2505H117.887L112.487 40.3945L118.214 46.742H113.141L109.786 43.1614L106.473 46.742Z" fill="#153C3C"/>
<path d="M123.122 34.2505V35.8374C123.655 35.2678 125.332 34.0065 128.155 34.0065H128.44C133.227 34.0065 134.781 37.2615 134.781 40.2318V40.598C134.781 43.3242 133.186 46.9454 128.399 46.9454H128.073C125.209 46.9454 123.655 45.6434 123.122 45.1144V51.0143H118.704V34.2505H123.122ZM126.845 37.2615H126.6C123.941 37.2615 123.122 39.0111 123.122 40.4353V40.5166C123.122 41.9 123.941 43.6904 126.6 43.6904H126.845C129.586 43.6904 130.241 41.8187 130.241 40.5166V40.4353C130.241 39.0925 129.627 37.2615 126.845 37.2615Z" fill="#153C3C"/>
<path d="M136.581 46.742V29.6935H141V46.742H136.581Z" fill="#153C3C"/>
<path d="M142.718 40.7202V40.3946C142.718 38.1568 143.741 33.9252 150.491 33.9252H151.227C158.181 33.9252 159 38.1975 159 40.3946V40.7202C159 42.958 158.181 47.0676 151.186 47.0676H150.491C143.782 47.0676 142.718 42.958 142.718 40.7202ZM154.5 40.4354C154.5 39.0112 153.805 37.1395 151.023 37.1395H150.777C147.873 37.1395 147.3 39.0112 147.3 40.4354C147.3 41.8188 147.873 43.7718 150.777 43.7718H151.023C153.764 43.7718 154.5 41.8188 154.5 40.4354Z" fill="#153C3C"/>
</svg>
