<svg width="183" height="72" viewBox="0 0 183 72" fill="none" xmlns="http://www.w3.org/2000/svg">
<path d="M40.1491 15.0094L34.9193 12L29.6895 15.0094L24.4596 17.9812L14 24V29.9812L19.2298 32.9907V27.0094L34.9193 17.9812L40.1491 20.9907V39.0094L45.4169 41.9812V24V17.9812L40.1491 15.0094Z" fill="#153C3C"/>
<path d="M55.8765 24.0001L50.6466 20.9907L45.4169 24L50.6466 27.0096V44.9907L45.4167 48.0001L40.1491 44.9907L34.9192 41.9814L29.6893 39.0096L24.4595 41.9814L34.9192 48.0001L40.1491 50.9719L45.4167 53.9814L50.6466 50.9719L55.8765 48.0001V24.0001Z" fill="#153C3C"/>
<path d="M40.1491 50.9719L34.9193 53.9812L29.6895 50.9718L24.4596 48L19.2298 44.9906V39.0093L34.9193 29.9811V24L29.6895 27.0093L24.4596 29.9811L19.2298 32.9907L14 36V48L19.2298 50.9718L34.9193 60L40.1491 56.9906V50.9719Z" fill="#153C3C"/>
<path d="M91.9169 39.4236V41.4549C91.9169 42.433 92.0307 42.6963 92.1822 42.922V43.0348H86.9901C86.9144 42.922 86.8766 42.6586 86.8766 42.0192V40.7402C86.8766 38.7465 86.1564 38.0318 83.9584 38.0318H78.6907V43.0725H73.6883V27.5365H85.247C91.0452 27.5365 91.8032 29.8687 91.8032 31.712V31.9C91.8032 33.9691 90.2494 35.1728 88.3925 35.549C90.4768 35.9628 91.9169 37.0912 91.9169 39.4236ZM84.5648 34.1571C86.1944 34.1571 86.5733 33.4801 86.5733 32.69V32.6524C86.5733 31.9 86.1564 31.223 84.5648 31.223H78.6907V34.1571H84.5648Z" fill="#153C3C"/>
<path d="M98.8901 43.0346V27.5361H103.893V42.9969H98.8901V43.0346Z" fill="#153C3C"/>
<path d="M110.675 35.4733V34.9843C110.675 31.6363 112.685 27.348 120.264 27.348H120.985C128.45 27.348 130.383 30.5831 130.383 32.9529V33.0282H125.115C124.963 32.652 124.357 31.185 120.605 31.185C116.891 31.185 115.831 33.1787 115.831 35.1348V35.3981C115.831 37.279 116.967 39.4985 120.681 39.4985C124.206 39.4985 124.963 37.8809 125.077 37.3919H120.719V34.5705H130.497V43.1097H126.782C126.707 42.5831 126.403 41.5674 126.139 41.0407C125.684 41.5297 123.979 43.3355 120.112 43.3355H119.771C112.76 43.2602 110.675 38.9718 110.675 35.4733Z" fill="#153C3C"/>
<path d="M137.735 43.0346V27.5361H142.737V42.9969H137.735V43.0346Z" fill="#153C3C"/>
<path d="M158.806 27.5361C167.143 27.5361 169 31.486 169 34.7964V35.4358C169 38.8591 167.447 43.0346 158.806 43.0346H150.203V27.5361H158.806ZM158.351 39.3104C163.278 39.3104 163.771 36.9782 163.771 35.2854V35.1726C163.771 33.555 163.278 31.2603 158.351 31.2603H155.205V39.3104H158.351Z" fill="#153C3C"/>
</svg>
