<svg width="183" height="72" viewBox="0 0 183 72" fill="none" xmlns="http://www.w3.org/2000/svg">
<path d="M18.8388 46.6986C18.98 46.6986 19.0708 46.5681 19.1111 46.3069C19.1717 46.0458 19.0808 45.5735 18.8388 44.8905C18.7582 44.6293 18.5766 44.1672 18.2942 43.5041C18.0321 42.8411 17.7194 42.0776 17.3564 41.2137C16.9934 40.3499 16.6203 39.4759 16.2371 38.5918C15.8741 37.7078 15.5412 36.8941 15.2387 36.1507C14.9362 35.4073 14.7043 34.8448 14.5429 34.463C14.2807 33.7799 13.9984 33.2978 13.6959 33.0165C13.4135 32.7352 13.1816 32.5945 13 32.5945H19.1717C19.0506 32.5945 18.97 32.7352 18.9296 33.0165C18.8893 33.2978 18.97 33.7799 19.1717 34.463C19.2725 34.8246 19.4338 35.3571 19.6556 36.0603C19.8977 36.7635 20.1599 37.557 20.4422 38.4411C20.7447 39.3252 21.0474 40.2293 21.3499 41.1535C21.6725 42.0776 21.965 42.9315 22.2272 43.7151H22.2574C22.4794 42.9115 22.7213 42.0475 22.9836 41.1234C23.2457 40.179 23.4979 39.2649 23.7398 38.3809C23.9818 37.4767 24.1936 36.6731 24.3752 35.9699C24.5769 35.2667 24.7181 34.7443 24.7987 34.4028C24.9802 33.7197 25.0508 33.2475 25.0105 32.9864C24.9701 32.7251 24.8995 32.5945 24.7987 32.5945H31.5149C31.3939 32.5945 31.3132 32.7352 31.2729 33.0165C31.2325 33.2978 31.3132 33.7799 31.5149 34.463C31.6157 34.8246 31.767 35.3571 31.9687 36.0603C32.1703 36.7635 32.3922 37.557 32.6342 38.4411C32.8763 39.3252 33.1284 40.2293 33.3906 41.1535C33.6528 42.0776 33.8848 42.9315 34.0864 43.7151H34.1167C34.4192 42.9115 34.7319 42.0475 35.0545 41.1234C35.3974 40.179 35.7302 39.2649 36.0529 38.3809C36.3755 37.4767 36.6579 36.6731 36.9 35.9699C37.142 35.2667 37.3033 34.7443 37.384 34.4028C37.5655 33.7599 37.6362 33.2978 37.5957 33.0165C37.5554 32.7352 37.4849 32.5945 37.384 32.5945H43.4044C43.2632 32.5945 43.0614 32.7251 42.7992 32.9864C42.5372 33.2475 42.2649 33.7096 41.9824 34.3727C41.8413 34.7343 41.6093 35.2667 41.2866 35.9699C40.964 36.6731 40.6109 37.4567 40.2278 38.3205C39.8447 39.1844 39.4613 40.0485 39.0782 40.9124C38.6949 41.7762 38.3521 42.5598 38.0496 43.2631C37.7672 43.9663 37.5655 44.5087 37.4445 44.8905C37.2428 45.5334 37.1621 45.9955 37.2025 46.2768C37.2428 46.5581 37.3234 46.6986 37.4445 46.6986H30.6981C30.819 46.6986 30.8997 46.5581 30.9401 46.2768C30.9804 45.9955 30.8997 45.5334 30.6981 44.8905C30.6376 44.7096 30.5165 44.2977 30.3351 43.6548C30.1736 43.0119 29.9719 42.2384 29.7299 41.3342C29.488 40.4101 29.2358 39.4556 28.9737 38.4713C28.7115 37.4868 28.4594 36.5526 28.2173 35.6686H28.1266C27.8846 36.5124 27.6324 37.4165 27.3702 38.3809C27.1081 39.3252 26.8559 40.2493 26.6139 41.1535C26.3719 42.0375 26.1499 42.8211 25.9484 43.5041C25.7668 44.1672 25.6457 44.6293 25.5853 44.8905C25.4038 45.5535 25.3331 46.0256 25.3735 46.3069C25.4139 46.5681 25.4844 46.6986 25.5853 46.6986H18.8388ZM50.1229 47C48.0052 47 46.3412 46.7087 45.1311 46.1261C43.9412 45.5434 43.1042 44.7096 42.6202 43.6247C42.1361 42.5197 41.8941 41.2037 41.8941 39.6767C41.8941 37.4064 42.5293 35.6082 43.8 34.2822C45.0707 32.9562 47.017 32.2932 49.6389 32.2932C51.1716 32.2932 52.412 32.5041 53.36 32.926C54.3281 33.348 55.0643 33.9105 55.5684 34.6138C56.0726 35.3169 56.4155 36.1005 56.597 36.9644C56.7987 37.8082 56.8996 38.6622 56.8996 39.5261V40.9425C56.8996 40.8822 56.6172 40.822 56.0525 40.7616C55.5079 40.6813 54.5803 40.6411 53.2692 40.6411H46.2505C46.2505 41.7461 46.5833 42.58 47.2489 43.1425C47.9345 43.685 49.0439 43.9562 50.5767 43.9562C51.8675 43.9562 53.0171 43.8056 54.0256 43.5041C55.0541 43.1827 55.8003 42.8813 56.2643 42.6V43.5041L56.5668 45.7946C56.1837 46.0557 55.4475 46.327 54.3583 46.6083C53.2692 46.8694 51.8575 47 50.1229 47ZM47.3698 38.0493H52.6036C52.6036 37.6074 52.5028 37.1754 52.3011 36.7535C52.1196 36.3315 51.8171 35.99 51.3935 35.7288C50.9699 35.4475 50.385 35.3069 49.6389 35.3069C48.5297 35.3069 47.733 35.5379 47.2489 36.0001C46.7648 36.4621 46.5228 36.9443 46.5228 37.4466C46.5228 37.6475 46.5833 37.7981 46.7043 37.8987C46.8253 37.9991 47.0472 38.0493 47.3698 38.0493ZM64.2029 47C62.8112 47 61.8028 46.7087 61.1776 46.1261C60.5523 45.5233 60.2396 44.5488 60.2396 43.2027V35.6082H57.5169V32.5945C58.4448 32.5945 59.1708 32.4841 59.6951 32.263C60.2195 32.0219 60.5928 31.61 60.8144 31.0274C61.0364 30.4448 61.1472 29.6311 61.1472 28.5863H64.5356V32.5945H69.7089C69.5677 32.9963 69.4266 33.4987 69.2853 34.1014C69.1643 34.6841 69.1039 35.1864 69.1039 35.6082H64.5356V41.5452C64.5356 42.4694 64.6062 43.1023 64.7474 43.4438C64.8886 43.7855 65.2215 43.9562 65.7457 43.9562C66.0887 43.9562 66.4618 43.8357 66.865 43.5946C67.2886 43.3535 67.6921 43.0622 68.0752 42.7206C68.4786 42.3589 68.8115 42.0174 69.0736 41.6959V42.6301L69.3761 45.5535C69.013 45.8749 68.3777 46.1964 67.4702 46.5179C66.5625 46.8393 65.4734 47 64.2029 47ZM70.1209 46.6986C70.2622 46.6986 70.3931 46.5581 70.5141 46.2768C70.6554 45.9955 70.7259 45.5334 70.7259 44.8905V34.7041C70.7259 34.0612 70.6554 33.6091 70.5141 33.348C70.3931 33.0667 70.2622 32.916 70.1209 32.8959C71.0083 32.8959 71.916 32.8356 72.8436 32.7151C73.7714 32.5745 74.4975 32.4338 75.0219 32.2932V33.4987L74.9614 34.0109L75.0219 34.0713C75.1632 33.8502 75.3849 33.6091 75.6874 33.348C76.0102 33.0667 76.4135 32.8256 76.8976 32.6246C77.4019 32.4037 77.9867 32.2932 78.6522 32.2932C79.6406 32.2932 80.5179 32.4338 81.2842 32.7151C82.0507 32.9763 82.5953 33.2475 82.9179 33.5288L82.0104 37.5672V38.4713C81.7077 38.0493 81.2944 37.6174 80.7699 37.1754C80.2657 36.7333 79.7011 36.3617 79.0758 36.0603C78.4707 35.7589 77.8455 35.6082 77.2001 35.6082C76.474 35.6082 75.9294 35.8695 75.5664 36.3918C75.2034 36.9142 75.0219 37.7379 75.0219 38.863V44.8905C75.0219 45.5334 75.0823 45.9955 75.2034 46.2768C75.3446 46.5581 75.4858 46.6986 75.6269 46.6986H70.1209ZM88.5762 47C86.7611 47 85.3089 46.6485 84.2198 45.9452C83.1508 45.222 82.6165 44.0666 82.6165 42.4795C82.6165 41.3745 82.8987 40.4803 83.4635 39.7973C84.0282 39.1142 84.7947 38.6118 85.7627 38.2904C86.751 37.9489 87.8704 37.7781 89.1208 37.7781C90.5125 37.7781 91.6016 37.9389 92.3881 38.2603C93.1747 38.5817 93.6688 38.8028 93.8706 38.9234C93.8706 37.6776 93.6487 36.7635 93.205 36.1808C92.7612 35.5982 91.9042 35.3069 90.6335 35.3069C89.4031 35.3069 88.314 35.4275 87.3662 35.6686C86.4181 35.9096 85.6418 36.1909 85.0366 36.5124C84.4517 36.8338 84.0484 37.105 83.8266 37.3261V36.4219L83.524 33.4685C83.6651 33.3882 84.0383 33.2576 84.6434 33.0767C85.2484 32.8959 86.0753 32.7251 87.1241 32.5644C88.1729 32.3835 89.4234 32.2932 90.8755 32.2932C92.8722 32.2932 94.3949 32.5844 95.4438 33.1671C96.4924 33.7297 97.2084 34.5434 97.5917 35.6082C97.995 36.6731 98.1968 37.9589 98.1968 39.4658V44.8905C98.1968 45.453 98.2573 45.8649 98.3782 46.1261C98.5194 46.3672 98.6605 46.5581 98.8018 46.6986H93.9008V46.0658L93.9613 45.4932L93.9008 45.433C93.5781 45.7745 92.963 46.1261 92.0554 46.4877C91.1679 46.8293 90.0082 47 88.5762 47ZM89.9982 43.9562C91.2485 43.9562 92.2067 43.8156 92.8722 43.5343C93.558 43.2329 93.9008 42.8512 93.9008 42.389C93.9008 41.927 93.5478 41.5452 92.842 41.2439C92.1561 40.9425 91.2183 40.7918 90.0285 40.7918C88.8789 40.7918 88.062 40.9526 87.578 41.274C87.114 41.5954 86.8821 41.9973 86.8821 42.4795C86.8821 43.0822 87.1544 43.484 87.6989 43.685C88.2435 43.8658 89.0098 43.9562 89.9982 43.9562ZM100.081 46.6986C100.222 46.6986 100.353 46.5581 100.474 46.2768C100.615 45.9955 100.686 45.5334 100.686 44.8905V34.7041C100.686 34.0612 100.615 33.6091 100.474 33.348C100.353 33.0667 100.222 32.916 100.081 32.8959C100.968 32.8959 101.876 32.8356 102.804 32.7151C103.731 32.5745 104.458 32.4338 104.982 32.2932V34.1315L104.922 34.5233L104.982 34.5836C105.042 34.443 105.234 34.1918 105.557 33.8302C105.88 33.4685 106.343 33.1269 106.948 32.8055C107.553 32.4639 108.3 32.2932 109.187 32.2932C111.063 32.2932 112.495 32.8256 113.483 33.8904C114.491 34.9553 114.996 36.6228 114.996 38.8931V44.8905C114.996 45.5334 115.056 45.9955 115.177 46.2768C115.319 46.5581 115.46 46.6986 115.601 46.6986H110.095C110.236 46.6986 110.367 46.5581 110.488 46.2768C110.629 45.9955 110.7 45.5334 110.7 44.8905V38.9836C110.7 37.557 110.478 36.5927 110.034 36.0904C109.59 35.568 109.025 35.3069 108.34 35.3069C107.472 35.3069 106.696 35.6183 106.011 36.2412C105.325 36.8439 104.982 37.8485 104.982 39.2549V44.8905C104.982 45.5334 105.042 45.9955 105.164 46.2768C105.305 46.5581 105.446 46.6986 105.587 46.6986H100.081ZM124.457 47C122.662 47 121.149 46.8995 119.919 46.6986C118.688 46.4978 117.841 46.2968 117.378 46.0959V45.1919L116.742 42.2384C117.267 42.6201 118.245 43.0019 119.676 43.3836C121.109 43.7653 122.863 43.9562 124.941 43.9562C125.888 43.9562 126.544 43.8658 126.907 43.685C127.29 43.5041 127.482 43.1927 127.482 42.7508C127.482 42.4091 127.351 42.1479 127.088 41.9672C126.847 41.7863 126.403 41.6458 125.758 41.5452C125.112 41.4247 124.174 41.2841 122.944 41.1234C121.391 40.9225 120.161 40.6411 119.253 40.2795C118.345 39.8978 117.7 39.4156 117.317 38.8329C116.954 38.2302 116.773 37.4969 116.773 36.6329C116.773 35.8293 116.964 35.106 117.347 34.463C117.75 33.8001 118.437 33.2776 119.404 32.8959C120.393 32.4941 121.764 32.2932 123.518 32.2932C125.173 32.2932 126.624 32.3936 127.875 32.5945C129.125 32.7954 130.023 32.9963 130.567 33.1972V34.1014L131.172 36.7535C130.708 36.452 129.801 36.1407 128.45 35.8192C127.099 35.4978 125.385 35.337 123.307 35.337C122.5 35.337 121.926 35.4174 121.582 35.5781C121.24 35.7389 121.068 36.0201 121.068 36.4219C121.068 36.6832 121.179 36.9041 121.402 37.085C121.623 37.2457 122.057 37.3964 122.702 37.537C123.368 37.6776 124.356 37.8384 125.666 38.0192C127.381 38.2402 128.672 38.5516 129.539 38.9535C130.406 39.3351 130.992 39.8174 131.294 40.4C131.596 40.9625 131.748 41.6458 131.748 42.4494C131.748 43.9964 131.163 45.1417 129.993 45.8849C128.823 46.6283 126.977 47 124.457 47ZM133.516 46.6986C133.657 46.6986 133.789 46.5581 133.909 46.2768C134.05 45.9955 134.121 45.5334 134.121 44.8905V35.6082H131.398V32.5945H134.424L134.454 32.5343C134.393 32.4338 134.273 32.1023 134.091 31.5397C133.909 30.957 133.819 30.274 133.819 29.4905C133.819 27.9033 134.273 26.758 135.18 26.0548C136.108 25.3516 137.368 25 138.962 25C140.252 25 141.392 25.0703 142.38 25.211C143.369 25.3315 144.085 25.4622 144.529 25.6027V26.537L145.134 29.8219C144.77 29.5608 144.295 29.2995 143.712 29.0384C143.146 28.7571 142.541 28.526 141.897 28.3453C141.251 28.1444 140.605 28.0438 139.959 28.0438C139.315 28.0438 138.851 28.1945 138.568 28.4959C138.306 28.7973 138.175 29.2393 138.175 29.8219V31.6905C138.175 32.1325 138.215 32.3936 138.296 32.474C138.376 32.5543 138.649 32.5945 139.112 32.5945H143.651C143.51 32.7754 143.369 33.1269 143.227 33.6493C143.106 34.1516 143.046 34.8046 143.046 35.6082H138.478V44.8905C138.478 45.5334 138.538 45.9955 138.659 46.2768C138.8 46.5581 138.941 46.6986 139.082 46.6986H133.516ZM151.083 47C148.965 47 147.301 46.7087 146.092 46.1261C144.901 45.5434 144.064 44.7096 143.58 43.6247C143.097 42.5197 142.854 41.2037 142.854 39.6767C142.854 37.4064 143.489 35.6082 144.76 34.2822C146.03 32.9562 147.977 32.2932 150.599 32.2932C152.131 32.2932 153.372 32.5041 154.32 32.926C155.288 33.348 156.025 33.9105 156.529 34.6138C157.032 35.3169 157.376 36.1005 157.557 36.9644C157.759 37.8082 157.86 38.6622 157.86 39.5261V40.9425C157.86 40.8822 157.577 40.822 157.013 40.7616C156.468 40.6813 155.541 40.6411 154.229 40.6411H147.211C147.211 41.7461 147.543 42.58 148.209 43.1425C148.894 43.685 150.005 43.9562 151.537 43.9562C152.828 43.9562 153.977 43.8056 154.985 43.5041C156.014 43.1827 156.76 42.8813 157.225 42.6V43.5041L157.527 45.7946C157.144 46.0557 156.408 46.327 155.319 46.6083C154.23 46.8694 152.818 47 151.083 47ZM148.33 38.0493H153.564C153.564 37.6074 153.463 37.1754 153.261 36.7535C153.079 36.3315 152.777 35.99 152.354 35.7288C151.93 35.4475 151.345 35.3069 150.599 35.3069C149.49 35.3069 148.693 35.5379 148.209 36.0001C147.725 36.4621 147.483 36.9443 147.483 37.4466C147.483 37.6475 147.543 37.7981 147.664 37.8987C147.786 37.9991 148.007 38.0493 148.33 38.0493ZM159.203 46.6986C159.345 46.6986 159.475 46.5581 159.596 46.2768C159.738 45.9955 159.808 45.5334 159.808 44.8905V34.7041C159.808 34.0612 159.738 33.6091 159.596 33.348C159.475 33.0667 159.345 32.916 159.203 32.8959C160.091 32.8959 160.998 32.8356 161.926 32.7151C162.854 32.5745 163.58 32.4338 164.104 32.2932V33.4987L164.043 34.0109L164.104 34.0713C164.246 33.8502 164.467 33.6091 164.769 33.348C165.093 33.0667 165.495 32.8256 165.98 32.6246C166.484 32.4037 167.069 32.2932 167.734 32.2932C168.723 32.2932 169.6 32.4338 170.366 32.7151C171.133 32.9763 171.677 33.2475 172 33.5288L171.092 37.5672V38.4713C170.789 38.0493 170.376 37.6174 169.852 37.1754C169.348 36.7333 168.783 36.3617 168.158 36.0603C167.552 35.7589 166.928 35.6082 166.282 35.6082C165.556 35.6082 165.011 35.8695 164.648 36.3918C164.285 36.9142 164.104 37.7379 164.104 38.863V44.8905C164.104 45.5334 164.164 45.9955 164.285 46.2768C164.427 46.5581 164.568 46.6986 164.709 46.6986H159.203Z" fill="#153C3C"/>
</svg>
