<svg width="183" height="72" viewBox="0 0 183 72" fill="none" xmlns="http://www.w3.org/2000/svg">
<path d="M47.1833 59.7126L53.3243 57.4933C55.0842 56.8539 56.245 55.1988 56.245 53.318C56.245 50.4969 53.6613 48.3905 50.9278 48.9924L44.5247 50.3464C42.2779 50.8354 40.6677 52.829 40.6677 55.1236C40.6302 58.5089 44.0003 60.841 47.1833 59.7126Z" fill="#153C3C"/>
<path d="M53.474 14.8754L47.258 12.3552C44.0751 11.0763 40.6301 13.4084 40.6301 16.8315C40.6301 19.0507 42.1279 20.969 44.2624 21.5332L50.7779 23.1884C53.5489 23.903 56.2075 21.7966 56.2075 18.9379C56.2449 17.17 55.159 15.5525 53.474 14.8754Z" fill="#153C3C"/>
<path d="M27 28.0032C27 31.5389 29.7709 34.4352 33.2908 34.5481L60.8507 35.5262C63.06 35.6013 64.8949 33.8335 64.8949 31.6141C64.8949 29.8086 63.6591 28.1912 61.8618 27.815L35.0132 21.6086C30.8943 20.6305 27 23.7526 27 28.0032Z" fill="#153C3C"/>
<path d="M56.2448 41.7326V42.0711C56.2448 44.2528 54.6722 46.0959 52.5378 46.4345L46.3217 47.4877C43.3635 47.9767 40.6675 45.6822 40.6675 42.6729V42.3344C40.6675 39.6637 42.802 37.4821 45.4606 37.4445L51.7514 37.3316C54.2227 37.2564 56.2448 39.2876 56.2448 41.7326Z" fill="#153C3C"/>
<path d="M89.7962 28.0407H93.3535V32.2912H89.7962V39.739C89.7962 41.2812 90.5077 41.8078 91.8932 41.8078C92.4549 41.8078 93.1288 41.7326 93.3535 41.6574V45.6445C92.9042 45.8326 92.0429 46.0959 90.6575 46.0959C87.2125 46.0959 85.0406 44.0271 85.0406 40.6042V32.3288H81.8577V28.0407H82.7564C84.6287 28.0407 85.4899 26.7995 85.4899 25.2196V22.737H89.7962V28.0407Z" fill="#153C3C"/>
<path d="M112.338 36.9177C112.338 42.372 108.332 46.3591 103.052 46.3591C97.7721 46.3591 93.7655 42.372 93.7655 36.9177C93.7655 31.426 97.7721 27.4764 103.052 27.4764C108.332 27.4764 112.338 31.426 112.338 36.9177ZM107.546 36.9177C107.546 33.57 105.373 31.8397 103.052 31.8397C100.73 31.8397 98.5585 33.5324 98.5585 36.9177C98.5585 40.2279 100.73 41.9582 103.052 41.9582C105.373 41.9582 107.546 40.2656 107.546 36.9177Z" fill="#153C3C"/>
<path d="M128.553 28.0407L132.371 39.5132L135.63 28.0407H140.385L134.843 45.8325H130.05L125.931 33.6829L121.85 45.8325H116.981L111.328 28.0407H116.346L119.603 39.4756L123.459 28.0407H128.553Z" fill="#153C3C"/>
<path d="M145.365 35.5637L149.709 34.9242C150.72 34.7737 151.057 34.2847 151.057 33.6453C151.057 32.3663 150.083 31.3508 148.062 31.3508C145.964 31.3508 144.841 32.7049 144.692 34.2471L140.46 33.3444C140.76 30.5608 143.306 27.4764 148.062 27.4764C153.678 27.4764 155.775 30.6737 155.775 34.2471V42.9738C155.775 43.9141 155.888 45.1931 156 45.7949H151.619C151.507 45.3436 151.431 44.3656 151.431 43.6509C150.533 45.0426 148.847 46.2839 146.227 46.2839C142.445 46.2839 140.161 43.7261 140.161 40.9425C140.085 37.7829 142.407 36.015 145.365 35.5637ZM151.057 38.6105V37.8206L147.05 38.4224C145.814 38.6105 144.841 39.2875 144.841 40.6793C144.841 41.7325 145.59 42.7481 147.126 42.7481C149.185 42.7481 151.057 41.7701 151.057 38.6105Z" fill="#153C3C"/>
</svg>
