<svg width="148" height="48" viewBox="0 0 148 48" fill="none" xmlns="http://www.w3.org/2000/svg">
<path d="M34.7619 4H40V44H34.7619V4Z" fill="#84A17D"/>
<path d="M0 11.5H29.5238V21.5H0V11.5Z" fill="#84A17D"/>
<path d="M11.1905 26.5H29.5238V36.5H11.1905V26.5Z" fill="#84A17D"/>
<path d="M60.5585 37.8706H55.0698L66.0471 7.39908H71.4941L82.4714 37.8706H76.858L74.4048 30.8259H63.0533L60.5585 37.8706ZM68.0845 16.4864L64.5918 26.324H72.8663L69.3735 16.4864C69.2626 16.0695 69.1379 15.6527 68.9993 15.2358C68.8607 14.819 68.7775 14.4577 68.7498 14.152C68.6944 14.4299 68.5974 14.7912 68.4588 15.2358C68.3479 15.6527 68.2231 16.0695 68.0845 16.4864Z" fill="#F4F5F6"/>
<path d="M89.8172 37.8706H84.7859V6.85718H89.8172V37.8706Z" fill="#F4F5F6"/>
<path d="M94.3069 37.8706V17.2784H99.3797V37.8706H94.3069ZM96.8017 13.1516C95.9424 13.1516 95.2078 12.8598 94.598 12.2762C94.0158 11.6648 93.7248 10.9284 93.7248 10.0669C93.7248 9.20542 94.0158 8.48288 94.598 7.8993C95.2078 7.31571 95.9424 7.02392 96.8017 7.02392C97.6611 7.02392 98.3818 7.31571 98.9639 7.8993C99.5738 8.48288 99.8787 9.20542 99.8787 10.0669C99.8787 10.9284 99.5738 11.6648 98.9639 12.2762C98.3818 12.8598 97.6611 13.1516 96.8017 13.1516Z" fill="#F4F5F6"/>
<path d="M102.625 27.116C102.625 25.1151 103.027 23.3366 103.831 21.7803C104.662 20.1963 105.813 18.9458 107.282 18.0287C108.751 17.1116 110.456 16.6531 112.396 16.6531C114.143 16.6531 115.64 17.0422 116.887 17.8203C118.134 18.5706 119.008 19.6266 119.507 20.9883L118.966 21.4468L119.382 17.2784H124.081V36.8285C124.081 39.1073 123.637 41.0804 122.75 42.7478C121.891 44.4429 120.657 45.7352 119.049 46.6244C117.469 47.5415 115.557 48 113.311 48C110.373 48 107.961 47.208 106.076 45.624C104.191 44.04 103.082 41.8724 102.75 39.1212H107.823C107.989 40.4551 108.543 41.4972 109.486 42.2475C110.456 42.9979 111.731 43.373 113.311 43.373C115.058 43.373 116.444 42.8589 117.469 41.8307C118.523 40.8303 119.049 39.4686 119.049 37.7456V32.6184L119.631 33.1603C119.132 34.4664 118.218 35.5085 116.887 36.2866C115.557 37.0647 114.018 37.4538 112.272 37.4538C110.331 37.4538 108.64 37.0092 107.199 36.1199C105.757 35.2306 104.635 34.0079 103.831 32.4516C103.027 30.8954 102.625 29.1168 102.625 27.116ZM107.739 26.9909C107.739 28.1581 107.961 29.2002 108.405 30.1173C108.876 31.0065 109.527 31.7152 110.359 32.2432C111.191 32.7712 112.161 33.0352 113.27 33.0352C114.434 33.0352 115.432 32.7851 116.263 32.2849C117.123 31.7569 117.774 31.0482 118.218 30.159C118.689 29.2419 118.925 28.1859 118.925 26.9909C118.925 25.796 118.703 24.7677 118.259 23.9062C117.816 23.017 117.164 22.3222 116.305 21.822C115.473 21.3218 114.462 21.0717 113.27 21.0717C112.133 21.0717 111.149 21.3357 110.317 21.8637C109.486 22.3639 108.848 23.0587 108.405 23.9479C107.961 24.8372 107.739 25.8515 107.739 26.9909Z" fill="#F4F5F6"/>
<path d="M133.572 37.8706H128.499V17.2784H133.197L133.613 19.9462C134.251 18.918 135.152 18.1121 136.316 17.5285C137.508 16.9449 138.797 16.6531 140.183 16.6531C142.761 16.6531 144.701 17.4173 146.004 18.9458C147.335 20.4742 148 22.5584 148 25.1985V37.8706H142.927V26.4073C142.927 24.6844 142.539 23.406 141.763 22.5723C140.987 21.7108 139.933 21.2801 138.603 21.2801C137.023 21.2801 135.789 21.7803 134.902 22.7808C134.015 23.7812 133.572 25.1151 133.572 26.7825V37.8706Z" fill="#F4F5F6"/>
</svg>
