<svg width="1060" height="376" viewBox="0 0 1060 376" fill="none" xmlns="http://www.w3.org/2000/svg">
<g clip-path="url(#clip0_401_10012)">
<path d="M815.514 98.6676C814.948 97.9329 814.823 96.7371 813.21 96.9704C812.847 97.5329 812.322 98.0582 812.206 98.5109C811.66 101.595 810.993 104.693 810.344 107.817C809.955 111.314 809.881 114.703 810.122 117.958L807.852 122.855L807.761 132.735C807.839 132.967 807.985 133.157 808.19 133.292L809.321 134.157C810.619 133.601 811.898 133.02 813.237 132.432C812.749 134.987 814.043 137.099 811.504 140.266L808.67 139.26C808.329 139.765 807.762 140.322 807.688 140.743C807.487 142.636 807.14 144.575 806.649 146.548C806.038 148.296 805.833 149.967 806.046 151.454C806.358 153.143 806.02 155.124 805.071 157.17C803.815 159.59 805.564 160.827 804.296 162.974C803.028 165.121 804.972 164.713 805.269 165.615C806.042 164.855 806.92 164.179 807.852 163.625C808.553 163.328 809.274 163.66 809.694 163.861C811.039 163.108 812.403 161.775 811.969 163.885C811.176 163.949 810.414 163.941 809.694 163.861C808.518 164.832 807.307 165.765 806.069 166.654C807.021 167.374 805.655 168.789 805.437 169.885C805.219 170.982 803.895 172.365 804.867 173.11C806.273 172.35 807.438 170.242 809.083 170.912C806.909 173.434 806.909 173.434 804.867 173.11C803.519 173.946 803.393 174.73 803.611 175.531L804.055 176.883L802.178 181.6L804.949 185.197C804.212 186.713 803.579 188.225 803.057 189.723C802.982 190.778 803.011 191.795 803.142 192.765C802.748 198.114 803.135 203.185 802.146 208.71C801.84 210.641 804.441 210.656 803.293 212.872C802.145 215.088 804.078 216.304 802.355 218.721C800.632 221.139 802.502 221.757 801.812 223.62C801.123 225.483 802.208 227.15 800.813 229.476C799.417 231.802 801.472 233.005 800.06 235.223C802.791 238.165 800.046 243.307 801.179 248.57L803.911 252.117L802.906 254.95L809.209 263.133L812.185 262.859L813.941 265.139C814.563 265.133 815.279 264.888 815.937 264.456C816.596 264.025 817.145 263.439 817.47 262.824C827.617 247.38 828.332 245.981 831.358 237.757C831.988 237.311 832.6 236.84 833.192 236.344C833.483 236.12 833.455 235.738 833.699 235.106L832.079 233.003C831.942 232.826 832.117 232.449 832.125 232.201C833.074 231.106 834.004 229.986 834.932 228.949L834.014 227.758L837.904 216.689C836.278 214.147 840.963 209.973 839.793 207.161C839.692 206.944 839.548 206.756 839.364 206.603L841.579 200.86L844.501 193.362C842.826 191.705 845.133 188.838 845.897 186.555C846.661 184.271 848.164 181.74 847.273 179.722C846.805 179.114 848.307 177.271 848.589 176.085C849.404 172.833 852.221 169.251 851.606 166.212C850.992 163.173 855.447 159.217 853.571 156.868L859.967 141.123L858.933 139.78C860.624 135.773 861.133 131.932 860.405 128.675L864.791 118.596L864.05 117.633C865.022 113.897 867.914 109.893 867.772 106.693C867.631 103.492 870.139 100.025 870.954 96.7737C871.046 96.4612 871.426 96.0068 871.309 95.8548C869.982 94.132 872.683 91.0018 872.416 89.1894C872.319 87.6306 872.601 85.9208 873.247 84.149C874.173 80.6102 877.06 76.7722 876.456 73.4025C875.973 70.7067 880.296 66.4075 878.504 63.9939L883.692 51.0766C881.565 48.3151 886.545 43.8333 885.402 40.7981C884.463 38.3727 889.382 33.8978 887.305 31.4606C889 27.7735 890.223 24.1205 890.945 20.584C891.717 17.028 892.952 13.3683 894.626 9.67523C895.73 6.28168 897.304 2.80872 898.633 -0.637207L903.181 -11.9717L902.088 -13.3904C902.888 -14.2486 904.43 -15.4362 904.682 -16.3162C905.743 -20.2824 909.973 -24.1864 910.728 -28.1187L916.16 -27.0146L918.463 -24.0251L921.458 -24.2737L927.703 -16.1665L926.716 -13.9132L932.103 -6.92075L931.083 -4.27881L933.562 -1.06131L932.771 2.05005L936.108 6.38235L935.24 9.39246L937.738 12.6353L936.811 15.5695L939.309 18.8123L938.304 21.645L940.041 23.8998L939.036 26.7325L940.773 28.9874L939.893 31.7238C940.693 32.7625 942.174 33.4785 942.137 34.6373C941.848 36.8522 942.211 38.8321 943.193 40.4039C941.633 44.0677 943.751 46.4728 941.985 50.2144L943.781 52.5452L942.809 54.9894L944.51 57.7155C942.995 59.9723 944.06 61.0093 945.333 62.4906C944.425 64.1779 943.794 65.8633 943.467 67.4804C943.405 68.7794 944.125 69.7995 943.054 71.5124L945.688 74.9326C944.446 78.8363 945.672 81.8073 944.535 85.5894C946.974 86.8593 944.361 91.052 947.115 92.6446L944.021 97.2477L946.46 100.415C944.246 103.573 945.06 106.095 944.503 108.906C944.265 109.977 945.115 110.735 945.662 112.049C944.093 116.792 943.534 121.334 944.016 125.427C944.146 128.017 943.748 130.817 942.837 133.723C942.418 135.626 942.285 137.452 942.44 139.155L944.741 142.832L941.884 145.759C942.162 146.349 942.38 146.977 942.535 147.639C942.58 148.129 941.987 148.91 941.949 149.464C941.985 150.355 942.093 151.216 942.273 152.039L940.572 156.296C940.35 158.163 943.366 158.544 941.284 161.359C941.86 164.275 941.488 167.633 940.2 171.155C939.726 172.86 939.619 174.477 939.885 175.919C940.143 178.667 939.906 181.635 939.816 184.449C940.235 187.274 939.61 190.548 938.01 193.913C938.829 196.15 938.648 198.921 937.493 201.861C936.36 204.872 937.441 207.31 935.468 210.524C937.887 211.164 933.637 215.043 936.097 215.651L933.112 223.239C935.3 224.701 934.079 227.943 934.223 230.456C934.709 232.834 934.526 235.53 933.685 238.378C932.344 241.55 933.389 243.854 931.967 247.008C930.545 250.162 932.04 252.361 929.764 255.526L932.497 259.073L927.259 272.271L929.21 274.804L926.487 277.992L926.529 284.943L924.446 286.548C924.821 288.943 924.619 291.6 923.85 294.394C922.453 297.407 924.245 299.216 922.425 302.111C922.04 302.731 921.501 303.67 921.716 303.949C923.219 305.9 919.834 309.436 920.75 311.314C921.665 313.192 918.988 315.577 919.607 318.45L919.841 318.754C918.73 321.258 917.768 323.751 916.961 326.221C916.298 328.548 914.063 331.077 915.296 333.195C916.193 334.361 912.883 337.476 913.926 339.175C914.969 340.874 911.581 343.888 912.589 346.058C913.376 347.511 912.332 350.293 912.005 352.886L913.527 354.862L912.522 357.694L914.24 359.924L913.299 362.667C914.688 363.696 914.489 366.109 917.118 365.901C918.128 364.8 917.6 363.511 919.374 362.71C919.1 361.751 918.125 361.089 920.563 360.462C920.221 361.212 919.823 361.963 919.374 362.71C919.822 363.199 920.226 363.723 920.584 364.281L924.786 363.789L926.39 360.011L924.031 360.051C924.308 357.665 924.368 355.352 924.211 353.131C923.984 351.974 924.875 350.803 925.012 349.688C925.15 348.574 928.929 346.671 927.485 344.797C926.939 344.087 928.165 341.972 928.66 340.46C929.155 338.949 927.896 337.658 929.202 335.562C930.178 333.799 931.035 332.033 931.769 330.275L929.603 327.463L932.13 324.709C933.316 322.382 934.15 320.067 934.605 317.838L930.166 316.816C930.466 314.446 932.684 313.706 934.32 312.123C934.625 311.485 935.368 310.468 935.434 309.691C935.378 307.297 935.975 304.663 937.184 301.965C935.838 300.216 937.816 297.441 938.541 295.107C938.749 294.341 937.933 293.799 938.12 293.009C938.65 290.421 940.876 287.536 940.346 285.038C939.816 282.539 943.595 278.74 942.637 276.289C941.679 273.839 945.665 270.566 943.584 268.899C944.114 267.013 944.857 265.089 945.8 263.156C947.045 261.067 945.222 260.251 946.262 258.239C947.301 256.227 948.478 254.393 946.885 253.359C948.456 251.261 946.966 250.189 947.469 248.429C948.209 246.646 948.601 244.907 948.628 243.297C948.178 240.648 948.361 237.705 949.17 234.605C950.202 231.549 949.364 229.167 950.847 226.007C951.932 223.926 952.234 221.902 951.699 220.304C950.665 218.962 952.708 216.701 951.708 215.575C950.707 214.448 952.532 212.68 952.719 211.284C952.802 210.468 952.814 209.676 952.753 208.916C952.617 207.447 953.882 205.382 952.801 204.237C953.944 201.549 954.538 198.927 954.552 196.511C954.808 194.861 955.878 193.148 955.28 191.51C954.682 189.871 957.34 187.461 956.63 185.505C956.18 184.317 958.234 181.726 958.137 180.307C958.04 178.888 957.502 177.931 958.609 176.351L956.658 173.818C957.559 171.473 958.044 169.191 958.093 167.061C958.022 164.814 958.243 162.343 958.153 160.071C958.063 157.8 960.935 155.063 959.24 153.381C960.529 150.572 959.535 148.592 959.796 146.172C960.056 143.751 960.132 141.351 960.434 138.898C960.156 136.671 960.344 134.238 960.989 131.689C959.274 130.669 961.318 128.409 961.593 126.784C961.819 125.406 961.903 124.072 961.842 122.797C961.718 120.518 961.821 118.145 962.15 115.698C962.36 113.558 963.249 111.178 963.507 108.84C963.771 100.563 964.368 92.0296 964.454 83.6077C964.794 81.639 964.579 79.8534 963.828 78.3986C963.125 77.4866 963.987 75.3294 963.873 73.8025C963.759 72.2755 965.298 69.2738 964.5 68.1523C963.511 66.5739 963.176 64.5662 963.528 62.3216C963.711 60.152 963.416 58.1636 962.658 56.4519C962.466 54.4586 962.679 52.2927 963.29 50.0315C963.226 47.9844 963.328 45.8705 963.594 43.7023C964.096 41.3375 960.387 41.0052 963.094 37.7094C960.191 36.9581 962.647 33.2502 961.547 31.3922C960.496 29.5638 960.54 27.0686 961.669 24.396C959.321 22.8135 962.026 18.3083 959.37 16.8425L960.311 14.0992L958.574 11.8444L959.579 9.01172L957.842 6.75687L958.834 4.33786L955.263 -0.29837L955.775 -1.70206C955.927 -2.0213 956.227 -2.49429 956.129 -2.62097C954.802 -4.34375 955.518 -7.03458 954.85 -9.02261C954.359 -9.91983 953.738 -10.7257 952.996 -11.4294L953.876 -14.1659L951.3 -17.5101L952.305 -20.3428L949.67 -23.763L950.675 -26.5958L946.265 -32.3215L947.171 -34.5934L939.814 -44.1446L937.569 -43.8691L938.197 -46.3302L935.571 -46.2049L932.878 -49.7011L929.883 -49.4525L928.126 -51.7326L918.067 -50.4834L905.191 -40.5652C902.25 -36.2813 899.711 -32.5094 897.03 -28.7491C895.422 -26.8142 893.9 -24.8474 892.473 -22.8569C891.53 -20.9246 890.787 -19.0004 890.257 -17.1137C889.874 -15.8795 889.351 -14.6239 888.695 -13.3671C887.915 -12.2536 887.006 -11.1734 885.991 -10.1541L886.986 -8.86212C886.17 -6.21518 883.755 -3.1441 885.942 -1.59879L883.15 0.551788C880.759 6.67169 878.57 12.8795 875.788 19.1801C874.255 22.621 875.35 25.2492 873.531 28.7492C871.812 32.218 870.449 35.6751 869.463 39.0685C868.851 41.033 869.655 42.5937 868.524 44.918C867.452 46.7154 866.941 48.5196 867.059 50.0834C867.353 51.6728 865.911 54.1965 865.194 56.2827C864.617 58.1764 863.877 60.0967 862.979 62.0259C861.939 64.0377 863.824 64.8466 862.456 66.9497C860.444 70.1136 862.69 72.3397 860.351 75.5949C858.012 78.85 860.259 80.3886 858.742 83.3329C857.255 86.4779 856.008 89.6114 855.009 92.7079C854.906 93.7461 854.985 94.7188 855.242 95.5962L851.422 105.118C852.862 107.763 849.694 111.495 849.124 114.719C850.082 115.273 849.555 116.486 849.19 117.736C849.103 118.788 849.209 119.768 849.504 120.643L847.42 122.248C846.417 124.393 847.816 125.778 846.44 128.13C845.566 129.699 844.94 131.271 844.584 132.788C844.468 133.241 845.534 133.591 845.443 133.903C843.272 138.239 844.174 141.824 842.515 146.048C843.569 147.416 841.898 149.47 841.314 151.212C840.73 152.953 842.569 153.272 841.265 155.286C839.961 157.3 840.818 159.102 840.265 161.142L838.724 162.33C837.306 165.365 836.514 168.348 836.391 171.11C836.473 173.63 833.227 177.261 834.45 179.71C834.684 180.014 833.943 180.948 833.802 181.541C832.858 185.659 828.785 190.37 830.132 194.015L825.421 206L825.371 212.659C824.161 214.277 822.715 216.279 821.216 218.039C821.449 219.03 822.465 219.66 819.985 220.319C820.356 219.558 820.767 218.797 821.216 218.039C820.631 217.279 819.928 216.367 819.03 215.201L821.404 210.87C820.603 209.227 820.045 208.244 819.715 207.126C819.578 206.948 820.478 206.134 820.922 205.59L818.854 202.905C820.469 194.314 818.173 187.282 821.49 178.228L819.812 176.049L820.795 173.274L818.746 170.614L821.663 165.178L817.253 164.538C815.623 163.093 814.485 161.234 813.892 159.054L817.243 158.491C818.305 156.422 816.235 156.321 816.234 154.424L816.932 152.312L814.98 149.779L817.688 147.088C820.144 147.174 820.208 148.981 821.298 149.878C821.631 149.621 822.173 149.204 822.214 149.172C822.437 146.013 822.64 142.829 822.718 139.741C822.543 139.513 821.878 139.339 821.418 139.088C819.616 140.799 819.786 142.485 818.754 144.248C816.843 144.267 816.561 143.556 817.246 140.566L815.587 138.413C816.652 136.865 816.132 135.328 818.13 133.87L818.387 129.636L812.015 129.983C811.097 126.725 811.901 122.64 814.271 118.517C817.837 118.364 820.955 119.067 823.351 120.565C824.141 119.95 824.788 119.197 825.194 118.418C825.6 117.64 825.743 116.878 825.602 116.247C824.753 114.197 826.317 111.659 827.017 109.465L825.261 107.185L826.2 104.524C823.496 104.548 819.863 106.297 818.937 102.853C816.791 105.757 815.706 107.279 814.349 109.051C814.56 110.1 816.651 110.143 814.9 112.179C812.876 111.275 812.876 111.275 814.349 109.051L812.964 107.252C813.466 104.887 815.569 102.015 814.203 100.242C814.211 99.9937 815.092 99.1541 815.514 98.6676ZM806.747 210.373C806.692 209.527 803.637 210.387 805.889 207.966C807.338 207.779 807.825 208.412 806.669 210.272L806.747 210.373ZM820.695 111.428C820.282 111.55 819.888 111.581 819.552 111.52C819.215 111.458 818.946 111.305 818.769 111.076C818.592 110.846 818.513 110.547 818.539 110.205C818.566 109.864 818.696 109.492 818.919 109.123C819.307 109.022 819.673 109.002 819.985 109.067C820.298 109.132 820.548 109.279 820.715 109.496C820.882 109.712 820.96 109.992 820.943 110.311C820.926 110.63 820.814 110.978 820.617 111.327L820.695 111.428ZM820.178 116.187L820.574 115.236C821.002 115.285 821.395 115.389 821.743 115.546C821.743 115.546 821.563 116.089 821.452 116.376L820.178 116.187ZM813.202 170.484L812.203 170.567C812.486 170.104 812.829 169.65 813.222 169.217C813.222 169.217 813.814 169.124 814.12 169.091L813.202 170.484ZM815.62 175.605L815.223 176.556C814.782 176.507 814.382 176.394 814.035 176.22C814.035 176.22 814.215 175.678 814.326 175.391L815.62 175.605ZM917.604 357.655C917.854 357.463 918.486 357.42 918.522 357.554C918.592 357.934 918.578 358.353 918.483 358.795C918.177 358.829 917.643 358.998 917.606 358.865C917.543 358.488 917.543 358.082 917.604 357.655Z" fill="#84A17D"/>
<path d="M532.9 -320.466L531.44 -318.655L534.035 -315.285L533.128 -312.326L540.134 -303.231L539.168 -300.347L541.763 -296.978C540.093 -294.319 542.16 -292.843 540.676 -290.287C542.166 -289.215 541.586 -286.951 541.716 -285.316C542.338 -283.51 543.403 -281.981 544.865 -280.798L543.823 -278.099L546.497 -274.628L545.544 -272.158L549.018 -267.649L548.052 -264.765L553.34 -257.9L552.316 -255.092L563.049 -241.158L562.102 -238.854L566.57 -233.052L565.485 -230.238L569.934 -224.462L568.829 -221.673L573.259 -215.922L572.154 -213.133L576.681 -207.255L575.709 -204.811L578.324 -201.416L577.319 -198.583L579.114 -196.253L578.349 -194.574C578.156 -192.325 580.043 -191.599 580.663 -190.018L579.735 -187.689L583.307 -183.053L582.179 -180.206C582.882 -179.294 584.683 -178.421 584.56 -177.116C584.486 -174.995 584.793 -173.029 585.471 -171.278C585.452 -169.317 585.224 -167.278 584.789 -165.182L588.106 -160.875L587.101 -158.042L588.702 -155.965L587.761 -153.222C588.658 -152.056 590.379 -151.202 588.489 -148.656L591.748 -144.425L590.937 -136.858L593.26 -133.843L592.274 -130.985L594.889 -127.59L593.865 -124.782L595.64 -122.477L594.69 -120.09L597.187 -116.16L596.215 -113.716C597.17 -112.814 597.968 -111.779 598.595 -110.625C599.104 -109.361 597.736 -107.258 598.917 -106.069C599.503 -105.309 598.627 -103.343 599.16 -102.22C599.694 -101.096 600.936 -99.9143 599.524 -97.6963L601.28 -95.4162L600.276 -92.5834L602.012 -90.3286L601.007 -87.4958L603.525 -84.2276C603.226 -83.1499 602.43 -81.7699 602.806 -81.454C604.169 -80.2025 603.591 -78.0219 603.68 -76.3547C603.769 -74.6876 604.969 -74.0779 604.394 -71.98C603.819 -69.8821 605.717 -69.4868 606.568 -68.1238L605.712 -65.5276L609.206 -60.9927L608.181 -58.1852L614.426 -50.078L620.639 -52.4419L621.706 -54.6766L623.311 -54.6616C625.201 -54.0182 620.594 -49.1379 625.327 -50.3207L626.169 -52.5032L632.961 -57.7351L637.384 -63.8873L636.755 -65.8246L639.137 -68.5072L642.518 -76.3587C646.166 -78.6039 644.316 -81.7808 647.806 -84.1459C647.962 -84.2688 648.1 -84.4092 648.213 -84.5587C648.326 -84.7082 648.412 -84.8637 648.464 -85.0159C649.569 -87.8048 650.679 -90.7591 651.821 -93.4145C652.963 -96.0699 656.786 -98.6919 655.842 -100.952C657.993 -103.416 661.165 -104.729 661.266 -107.27C664.142 -107.587 667.375 -110.199 669.968 -109.936L675.787 -106.95L679.648 -106.937L678.595 -103.219L686.557 -92.8826L685.606 -90.4958L689.178 -85.8595L688.05 -83.0132C688.578 -82.0768 689.231 -81.2291 690.002 -80.4797C691.191 -79.539 689.278 -77.5406 689.995 -76.4377C690.712 -75.3347 691.478 -74.5122 692.297 -73.4482L691.418 -70.7117L693.994 -67.3675L692.989 -64.5348L694.725 -62.2799L693.992 -60.3019C693.825 -58.2766 695.693 -57.5759 696.375 -56.0017L695.582 -54.0996C695.235 -52.1368 697.319 -51.8449 697.345 -49.4835C695.689 -46.6338 699.018 -45.847 699.489 -43.4248C696.738 -40.0142 702.613 -40.0587 699.209 -36.5483L701.98 -32.9508L700.994 -30.0927L702.712 -27.8633L701.707 -25.0305L705.024 -20.7236C704.615 -18.6244 704.393 -16.578 704.362 -14.6022C704.604 -12.6496 705.944 -11.3406 705.212 -8.75784C704.93 -7.57205 706.656 -6.88309 707.495 -5.7937L706.657 -3.08929L709.213 0.229553L708.228 3.08755L710.843 6.48242L709.818 9.28986L711.672 11.6967L710.667 14.5295L712.345 16.7083L711.419 19.6424C714.87 21.0203 712.517 25.9815 714.599 28.2532C712.749 31.4543 715.556 31.9961 716.352 33.8051L715.453 36.5162L717.151 38.7203L716.146 41.5532L717.902 43.8333L716.974 46.1626L719.609 49.5828L718.503 52.3717L722.075 57.008L720.928 59.8289L724.499 64.4652L723.546 66.9348L726.239 70.4309L728.926 70.2989L730.663 72.5537L743.662 70.8971C745.415 68.174 749.436 70.8087 750.689 66.5739C749.809 66.1213 747.839 67.3563 747.451 66.1621C744.965 66.9867 744.965 66.9867 744.628 64.8246C747.043 63.6504 746.551 65.6842 747.451 66.1621L749.97 62.3647L753.637 59.5402L753.234 56.863C754.486 55.2126 756.163 52.9928 757.858 50.7985C757.858 50.7985 758.4 50.3813 759.12 50.1093L761.075 51.2678L764.372 49.8587L765.337 45.0785C764.05 44.0111 760.344 44.8881 759.919 42.2683L755.936 44.1656C755.936 44.1656 755.474 43.9967 755.624 43.7602L763.127 24.5389C763.127 24.5389 763.752 24.0575 764.044 23.8328C763.608 23.5541 763.294 23.1612 763.121 22.6783C762.947 22.1953 762.917 21.6327 763.034 21.0248C763.15 20.4169 763.41 19.7768 763.798 19.1439C764.185 18.511 764.692 17.8987 765.287 17.3448L763.511 15.0393C761.267 17.2117 761.282 19.2995 760.379 21.4886C759.476 23.6778 758.163 25.335 759.756 26.3686L756.418 34.7926L751.483 47.4345L743.13 58.9146L737.779 57.8289L736.061 55.5995L737.011 53.2127L733.44 48.5764L734.437 45.9919L731.198 41.7863L732.047 34.2697L729.705 31.2295L730.669 28.4288L727.837 28.6319C726.912 25.5267 727.524 21.6625 729.568 17.6913L725.737 17.3724L726.526 14.9484L723.911 11.5535L724.872 8.83566L722.547 9.09265L723.123 -1.96774L719.884 -6.17328C720.956 -7.28146 721.733 -8.08221 722.491 -8.90826C723.241 -11.3829 720.54 -11.4418 720.588 -14.2238L721.178 -15.5261C720.904 -17.7776 718.641 -18.8197 717.733 -20.9462L718.502 -23.3955L716.361 -23.1587C715.797 -24.5809 717.771 -26.5862 717.378 -28.907L714.372 -32.8085L715.358 -35.6666L710.909 -41.443L714.058 -49.0764L709.687 -54.7514L710.516 -57.8122L708.095 -61.5583L709.023 -63.8878L704.964 -69.1574L705.345 -77.2821C705.822 -79.4573 705.353 -81.3258 704.029 -82.5249C703.288 -83.4877 702.546 -84.4504 701.804 -85.4132L702.283 -92.119L700.046 -92.0918C699.039 -92.6602 698.47 -93.6423 698.428 -94.882C699.206 -95.6827 699.964 -96.5088 700.741 -97.3095C700.737 -97.8315 700.942 -98.5139 700.708 -98.8179C697.878 -102.492 695.049 -106.165 692.239 -109.813L693.18 -112.556C693.074 -114.332 690.761 -113.196 689.676 -113.571L690.342 -115.982L687.669 -115.659L681.405 -123.791L678.794 -123.475L676.218 -126.819C672.918 -125.932 672.105 -129.142 668.217 -127.035C666.091 -126.003 663.959 -123.513 661.413 -123.973L647.662 -113.381C647.45 -110.554 644.267 -107.618 642.912 -104.636C641.557 -101.655 640.416 -98.3945 639.178 -95.2611C637.94 -92.1277 636.927 -89.0467 635.425 -85.9115C633.922 -82.7764 631.759 -79.2932 629.54 -75.3641C628.29 -74.4012 626.948 -73.7304 626.085 -75.3671L626.923 -78.0714L623.469 -82.5557L624.455 -85.4138L622.738 -87.6432L623.742 -90.4761L621.967 -92.7816L622.866 -95.4926C621.401 -100.043 620.659 -104.996 620.655 -110.259L618.293 -113.324C618.37 -115.306 618.598 -117.341 618.975 -119.42C619.553 -121.601 616.774 -121.761 618.041 -124.513C619.307 -127.265 616.391 -127.602 617.396 -130.435C617.98 -132.176 614.57 -132.294 615.653 -135.026C616.736 -137.757 614.243 -137.976 613.684 -139.564C614.07 -140.619 614.192 -141.626 614.04 -142.51C613.889 -143.394 613.468 -144.13 612.81 -144.664L613.732 -147.432L611.995 -149.687L613 -152.52L610.365 -155.94L611.16 -157.925C610.82 -159.626 609.93 -161.017 608.566 -161.982L605.535 -161.867L608.473 -164.775L609.849 -168.419L607.273 -171.763L608.258 -174.621L606.541 -176.851L607.546 -179.684L604.911 -183.104L605.82 -185.458L604.243 -188.281L604.971 -190.698C603.937 -192.041 602.388 -193.189 602.842 -194.669C603.154 -195.574 603.23 -196.431 603.063 -197.173C602.896 -197.914 602.491 -198.517 601.88 -198.934C600.429 -199.956 602.128 -202.233 601.495 -203.4C600.861 -204.567 599.719 -205.705 601.131 -207.923L598.477 -211.369L599.501 -214.176L597.725 -216.482L598.695 -218.843L595.124 -223.48L596.209 -226.294L592.658 -230.905L593.743 -233.719L589.294 -239.495L590.288 -241.997L584.122 -250.003L585.088 -252.886L582.551 -256.18L583.533 -258.955L577.308 -267.037L578.039 -268.932C578.131 -269.244 578.347 -269.653 578.249 -269.78L568.492 -282.447L569.42 -284.777L564.795 -290.781L561.602 -290.703L562.15 -295.162L558.581 -295.4L556.942 -297.528L557.9 -300.163L550.796 -309.385L551.799 -312.135C550.743 -312.816 551.004 -314.632 548.777 -314.248L547.51 -311.496L540.771 -311.109L545.322 -317.44L548.615 -318.079C549.8 -319.557 548.92 -320.01 548.143 -320.501C546.105 -320.303 544.865 -318.379 543.208 -317.426L540.186 -316.955L540.125 -313.154C537.319 -313.092 537.454 -315.416 536.025 -316.495L540.065 -322.11L543.016 -320.952C543.33 -322.706 542.987 -324.237 542.038 -325.325L544.559 -327.913C545.299 -329.452 544.797 -330.276 542.692 -329.906L541.742 -327.519L538.067 -324.446L536.3 -321.309C534.889 -320.383 533.514 -319.324 532.9 -320.466ZM753.608 50.8835C753.364 49.6183 752.514 48.86 754.828 48.3293C754.531 49.013 754.117 49.6997 753.605 50.3614C753.776 50.4851 753.885 50.6648 753.922 50.884C753.959 51.1032 753.922 51.3552 753.815 51.6176C753.708 51.88 753.534 52.1446 753.309 52.3876C753.084 52.6306 752.814 52.8445 752.524 53.0101C751.429 55.2097 750.17 57.4073 748.758 59.5846C747.884 60.0404 747.002 60.4503 746.117 60.8112L747.649 56.7655L752.524 53.0101C751.878 52.2568 752.252 51.3633 753.608 50.8835Z" fill="#84A17D"/>
<path d="M811.349 -75.3353L810.003 -77.0834C808.075 -77.1727 806.754 -75.2672 804.992 -74.1927L803.709 -71.5491L795.919 -68.8187C794.93 -66.4826 797.496 -65.9964 797.999 -64.5675C797.318 -60.9301 795.206 -57.0096 792.015 -53.4592L789.893 -53.1971L788.713 -50.5925L785.854 -50.1665L781.978 -47.1815C781.334 -44.8285 779.544 -42.2387 779.543 -39.6544L783.018 -39.6261L782.121 -36.9977L783.116 -35.7056L785.906 -37.1687L787.242 -40.1754L791.475 -39.0763L801.246 -63.7992C801.455 -63.9597 802.038 -64.409 802.78 -64.7385C805.959 -65.0074 803.866 -62.4668 803.571 -60.8672L806.186 -57.4723L805.325 -55.3152C805.79 -53.4386 807.096 -52.0758 809.042 -51.4373C810.489 -54.048 811.03 -56.6262 810.576 -58.7547L814.426 -55.8261L817.46 -57.921L816.897 -60.0307L813.799 -59.7432L812.491 -61.4407L810.409 -60.5232L805.648 -66.7049L808.518 -70.0463L805.955 -70.6153C807.345 -72.7758 809.572 -73.7642 811.349 -75.3353ZM789.838 -44.4762L788.859 -44.368C789.152 -44.8351 789.486 -45.2957 789.858 -45.743C789.858 -45.743 790.47 -45.8107 790.776 -45.8445L789.838 -44.4762Z" fill="#84A17D"/>
<path d="M818.671 78.6335L817.691 81.326L819.486 83.6568L826.419 81.0211C830.391 77.5581 828.02 75.4283 829.025 72.5955C829.471 71.3641 828.14 70.4116 826.937 69.8847C824.645 71.6501 826.429 71.8104 826.444 72.6059C826.459 73.4015 825.845 73.5519 825.204 74.53C823.223 72.907 822.218 70.6537 820.499 69.1117C817.022 72.3551 820.177 74.1234 817.486 76.9226C817.233 77.1979 818.242 78.0761 818.671 78.6335Z" fill="#84A17D"/>
<path d="M817.847 133.764C818.894 134.693 819.044 136.354 820.867 136.565C821.075 136.404 821.526 136.299 821.533 136.051L824.166 129.987L822.214 127.453L824.473 122.283L823.107 120.509C820.391 122.391 817.858 124.547 815.607 126.892L818.758 126.846C818.722 128.609 822.099 128.511 820.741 131.575L817.847 133.764Z" fill="#84A17D"/>
<path d="M824.91 27.0847L827.832 29.7582L830.675 27.9319L830.949 22.5132C830.571 21.5173 829.799 20.784 828.72 20.3953L826.531 23.414L823.78 22.3434L821.655 23.9803L821.217 29.4446L824.91 27.0847Z" fill="#84A17D"/>
<path d="M816.304 -12.7072C815.86 -12.1632 814.935 -11.2088 815.033 -11.0822C816.568 -9.51987 812.817 -5.33899 816.893 -5.04718L814.095 0.458008L817.471 4.84088C817.916 4.29694 818.71 3.60431 818.701 3.24789C818.745 1.23615 818.5 -0.633606 818.463 -2.66391C818.287 -2.89194 819.29 -3.74506 819.734 -4.289L817.529 -7.15186L818.509 -9.84442L816.304 -12.7072Z" fill="#84A17D"/>
<path d="M819.732 -4.28867L822.034 -1.29916L825.476 -2.77917L826.95 -9.48517L824.343 -8.04242L821.017 -8.91196C819.229 -7.00983 822.991 -6.43588 819.732 -4.28867Z" fill="#84A17D"/>
<path d="M773.969 -11.4644L772.174 -13.7951C769.382 -10.3524 769.298 -7.09924 767.529 -3.87961C768.166 -2.19055 769.426 -2.19241 771.476 -4.01349C772.128 -6.61478 770.912 -8.62466 773.969 -11.4644Z" fill="#84A17D"/>
<path d="M817.944 39.6751C818.381 36.1352 818.374 32.7453 817.921 29.5608C817.824 29.4341 817.332 29.5709 817.048 29.5473C814.098 32.1826 815.673 33.7955 815.301 35.8985C814.929 38.0015 815.045 39.4457 814.899 41.4963L817.944 39.6751Z" fill="#84A17D"/>
<path d="M781.093 -2.21793C783.385 -3.98328 782.275 -5.51007 783.614 -6.70273C782.875 -9.04041 778.245 -6.60434 778.602 -9.5029L776.644 -7.99429L776.298 -4.82205L778.907 -5.05545L781.093 -2.21793Z" fill="#84A17D"/>
<path d="M811.423 -43.1786L810.224 -39.9944L813.828 -42.1248C814.505 -44.8663 811.993 -45.111 811.877 -47.8474C812.018 -48.4402 813.633 -50.6531 811.015 -50.7761C809.382 -49.276 809.501 -47.9147 808.808 -46.5735L811.423 -43.1786Z" fill="#84A17D"/>
<path d="M823.109 -64.209C821.353 -66.4892 820.045 -68.1866 818.153 -70.0393L816.2 -65.5073L819.196 -65.1512C820.856 -64.2899 817.423 -61.1613 819.621 -60.6345C819.922 -60.6124 820.235 -60.6103 820.556 -60.6279C822.276 -61.6702 821.256 -62.8221 823.109 -64.209Z" fill="#84A17D"/>
<path d="M820.967 -34.7478C822.97 -33.1822 817.676 -31.6074 818.845 -30.0046C819.96 -29.9354 821.062 -31.3493 822.346 -32.0961C823.766 -32.8117 825.201 -33.4304 826.632 -33.9444L827.948 -36.9764C827.109 -38.0658 824.967 -36.537 824.093 -37.1551L820.967 -34.7478Z" fill="#84A17D"/>
<path d="M766.002 22.3245L768.127 20.6876L770.629 13.593L767.57 13.9312L765.287 17.3448L766.418 18.8145L766.002 22.3245Z" fill="#84A17D"/>
<path d="M815.845 52.5558C813.486 55.7857 814.755 58.0372 814.262 60.7584C814.148 61.1283 815.019 61.2245 815.518 61.5268C817.351 60.1145 816.887 58.7362 817.764 57.3747C815.343 56.8176 819.492 52.895 816.843 52.473C816.523 52.4718 816.189 52.4995 815.845 52.5558Z" fill="#84A17D"/>
<path d="M816.303 -12.7077C816.595 -12.9323 817.136 -13.3497 817.178 -13.3818C818.062 -16.6774 817.539 -19.5685 815.709 -21.4944C813.834 -20.0501 814.298 -18.6718 813.083 -16.888L816.303 -12.7077Z" fill="#84A17D"/>
<path d="M814.367 81.062C810.684 84.3831 813.177 86.4993 811.825 89.398C811.584 89.947 812.586 90.3861 813.347 91.3742L814.841 88.4873C816.07 86.2896 814.098 85.0229 815.594 82.7408C815.852 82.2999 814.796 81.6193 814.367 81.062Z" fill="#84A17D"/>
<path d="M814.671 73.4393C814.08 74.2503 813.538 75.0725 813.048 75.9005C812.709 76.6996 812.432 77.4929 812.221 78.2738L814.367 81.0606C814.867 80.6755 815.275 79.9981 815.658 79.4609C816.041 78.9237 816.809 77.7666 817.364 76.9355L814.671 73.4393Z" fill="#84A17D"/>
<path d="M793.277 -58.6292L792.38 -59.7946C790.082 -59.7606 788.614 -57.7013 786.65 -56.0272L787.302 -54.1473C787.867 -54.1967 788.472 -54.3522 789.079 -54.6047C789.686 -54.8572 790.285 -55.2019 790.841 -55.6186C791.396 -56.0352 791.898 -56.5157 792.316 -57.0324C792.734 -57.5492 793.061 -58.0919 793.277 -58.6292Z" fill="#84A17D"/>
<path d="M775.173 -17.9206L776.578 -16.0965C778.937 -17.4294 779.214 -19.7419 781.378 -21.3282L780.477 -23.0156C779.946 -22.9294 779.601 -22.9462 779.273 -22.8549C776.401 -22.0151 777.29 -19.3093 775.173 -17.9206Z" fill="#84A17D"/>
<path d="M816.86 20.0847C816.246 21.4304 815.926 22.7482 815.919 23.9554C815.912 25.1626 816.219 26.233 816.819 27.0995C818.569 25.7515 818.289 24.353 819.085 22.9729L816.86 20.0847Z" fill="#84A17D"/>
<path d="M775.151 -17.9443L773.375 -20.2498C772.781 -19.697 772.275 -19.0855 771.89 -18.4536C771.504 -17.8216 771.247 -17.1826 771.134 -16.5768C771.021 -15.9709 771.055 -15.411 771.234 -14.9322C771.413 -14.4533 771.733 -14.0658 772.173 -13.7938C772.617 -14.3377 773.081 -14.8564 773.506 -15.4256C773.93 -15.9949 774.615 -17.0878 775.151 -17.9443Z" fill="#84A17D"/>
<path d="M778.601 -9.50119L782.485 -10.8376L783.9 -14.4305C781.417 -14.2934 779.715 -11.9336 777.704 -10.6665L778.601 -9.50119Z" fill="#84A17D"/>
<path d="M814.769 73.5668C816.686 72.0903 816.246 70.5719 817.295 68.9164L815.855 67.5636C813.938 69.0401 814.177 70.4707 813.422 71.8187L814.769 73.5668Z" fill="#84A17D"/>
<path d="M786.822 -26.9337L782.946 -23.9486L784.722 -21.6431L788.556 -24.5961L786.822 -26.9337Z" fill="#84A17D"/>
<path d="M816.86 20.0847C818.777 18.6082 818.357 17.1154 819.406 15.4599L817.965 14.1071C816.048 15.5836 816.287 17.0143 815.533 18.3623L816.86 20.0847Z" fill="#84A17D"/>
<path d="M822.837 11.8089C824.753 10.3325 824.334 8.83939 825.363 7.1586L821.112 7.24347C820.455 10.0103 822.228 10.5016 822.837 11.8089Z" fill="#84A17D"/>
<path d="M771.453 29.2267C769.632 30.9126 769.339 32.4295 769.154 34.4294L772.938 31.7569L771.453 29.2267Z" fill="#84A17D"/>
<path d="M816.291 -21.9423C816.495 -24.5216 816.495 -24.5216 814.323 -25.876C812.857 -23.2122 815.224 -22.8965 816.291 -21.9423Z" fill="#84A17D"/>
<path d="M810.953 -75.5942C812.584 -74.5099 812.244 -72.1079 815.069 -72.7501C815.942 -74.6335 814.556 -75.1402 813.867 -75.8614C813.555 -76.2667 812.279 -75.7683 810.953 -75.5942Z" fill="#84A17D"/>
<path d="M820.967 -34.7478C820.048 -35.2511 820.541 -37.2849 818.125 -36.1107C818.441 -33.8912 818.44 -33.8912 820.967 -34.7478Z" fill="#84A17D"/>
<path d="M814.805 -33.9569C814.615 -34.6167 814.313 -35.211 813.907 -35.7269C813.79 -35.8789 812.903 -35.4785 812.386 -35.2015C811.869 -34.9244 811.956 -34.4666 812.054 -34.3399C812.151 -34.2133 813.043 -33.4871 813.577 -33.0514L814.805 -33.9569Z" fill="#84A17D"/>
<path d="M820.342 -21.5094C819.833 -19.5837 820.237 -18.8862 821.806 -19.0046C823.561 -21.1229 822.411 -21.4083 820.342 -21.5094Z" fill="#84A17D"/>
<path d="M829.994 -2.94836C831.467 -5.17307 831.467 -5.17316 829.444 -6.0766C827.692 -4.04105 829.803 -3.97192 829.994 -2.94836Z" fill="#84A17D"/>
<path d="M829.992 -2.94824C828.56 -0.755646 828.56 -0.755707 830.565 0.122437C832.336 -1.88776 830.224 -1.95676 829.992 -2.94824Z" fill="#84A17D"/>
<path d="M829.549 8.4541C830.98 6.26147 830.98 6.26154 828.976 5.38339C827.244 7.44431 829.316 7.46262 829.549 8.4541Z" fill="#84A17D"/>
<path d="M784.741 -21.6176C783.268 -19.3929 783.268 -19.3929 785.272 -18.5147C787.024 -20.5503 784.971 -20.5433 784.741 -21.6176Z" fill="#84A17D"/>
<path d="M778.172 -30.4027C776.003 -29.9431 774.88 -29.1592 774.243 -27.6591C776.011 -27.0022 776.987 -28.3199 778.172 -30.4027Z" fill="#84A17D"/>
<path d="M773.972 -11.4648L775.747 -9.15939L777.706 -10.668C777.483 -11.3085 777.078 -11.834 776.516 -12.2134C775.909 -12.3113 774.814 -11.7504 773.972 -11.4648Z" fill="#84A17D"/>
<path d="M776.164 19.1382C773.995 19.5979 772.873 20.3817 772.236 21.8817C774.003 22.5386 774.98 21.221 776.164 19.1382Z" fill="#84A17D"/>
<path d="M812.45 -61.4079C813.923 -63.6327 813.923 -63.6327 811.899 -64.5361C810.356 -62.6611 812.448 -62.6173 812.45 -61.4079Z" fill="#84A17D"/>
<path d="M814.701 -52.3643L815.638 -53.7326C815.541 -53.8593 814.846 -53.7275 814.74 -53.6059C814.34 -53.1612 813.984 -52.6973 813.68 -52.224L814.701 -52.3643Z" fill="#84A17D"/>
<path d="M815.845 -47.4331C815.786 -46.9918 815.78 -46.5674 815.824 -46.1661C815.824 -46.1661 816.436 -46.2338 816.742 -46.2676C816.8 -46.7089 816.807 -47.1332 816.762 -47.5345C816.762 -47.5345 816.15 -47.4669 815.845 -47.4331Z" fill="#84A17D"/>
<path d="M828.131 -24.8459L827.132 -24.763C827.084 -24.3253 827.078 -23.9018 827.112 -23.4962C827.112 -23.4962 827.724 -23.5638 828.03 -23.5977L828.131 -24.8459Z" fill="#84A17D"/>
<path d="M828.731 -16.2255L829.909 -18.7476C827.637 -18.2491 828.445 -17.4586 828.731 -16.2255Z" fill="#84A17D"/>
<path d="M828.64 -17.2046L827.463 -14.6826C829.734 -15.1812 828.926 -15.9716 828.64 -17.2046Z" fill="#84A17D"/>
<path d="M790.758 -62.5017L791.908 -62.2164C792.019 -62.5036 792.318 -62.9766 792.198 -63.0458C791.851 -63.2198 791.451 -63.3328 791.01 -63.3817L790.758 -62.5017Z" fill="#84A17D"/>
<path d="M822.403 -12.8041C821.882 -12.6488 821.356 -12.4333 820.838 -12.1637C820.838 -12.1637 820.596 -11.6148 820.486 -11.3276C821.012 -11.491 821.543 -11.697 822.07 -11.9427C822.07 -11.9427 822.292 -12.5169 822.403 -12.8041Z" fill="#84A17D"/>
<path d="M829.524 7.99011L828.196 10.7485C830.598 9.98819 829.79 9.19781 829.524 7.99011Z" fill="#84A17D"/>
<path d="M822.733 1.06943L821.795 2.43768C822.004 2.27719 822.546 2.4646 822.693 2.31088C823.093 1.86615 823.449 1.40231 823.754 0.929077L822.733 1.06943Z" fill="#84A17D"/>
<path d="M828.672 16.7993L827.734 18.1676C828.04 18.1338 828.485 18.1945 828.633 18.0408C829.025 17.6087 829.368 17.1544 829.651 16.6911L828.672 16.7993Z" fill="#84A17D"/>
<path d="M822.79 11.3188L821.612 13.8409C823.676 13.5029 822.973 12.5908 822.79 11.3188Z" fill="#84A17D"/>
<path d="M817.423 4.35181L816.246 6.87384C818.309 6.5358 817.626 5.64902 817.423 4.35181Z" fill="#84A17D"/>
<path d="M815.953 10.3692L817.227 10.5582C817.338 10.2711 817.637 9.79813 817.559 9.69678C817.182 9.56824 816.777 9.4751 816.349 9.41818L815.953 10.3692Z" fill="#84A17D"/>
<path d="M786.825 -26.4119L788.044 -28.966C785.731 -28.4354 786.6 -27.6517 786.825 -26.4119Z" fill="#84A17D"/>
<path d="M781.239 -31.5956L780.862 -30.6192C781.383 -30.782 781.908 -30.9971 782.427 -31.2596C782.427 -31.2596 782.71 -31.8406 782.821 -32.1278L781.239 -31.5956Z" fill="#84A17D"/>
<path d="M779.23 -35.5775L778.292 -34.2093C778.617 -34.2177 779.104 -34.189 779.251 -34.3427C779.624 -34.7899 779.959 -35.2506 780.25 -35.7179L779.23 -35.5775Z" fill="#84A17D"/>
<path d="M822.123 31.5715L821.144 31.6797C821.086 32.121 821.079 32.5453 821.124 32.9466C821.124 32.9466 821.716 32.8536 822.042 32.8451L822.123 31.5715Z" fill="#84A17D"/>
<path d="M546.009 -324.911L545.632 -323.935C546.167 -324.109 546.706 -324.334 547.238 -324.607C547.238 -324.607 547.479 -325.156 547.59 -325.444L546.009 -324.911Z" fill="#84A17D"/>
<path d="M828.894 46.1367L828.517 47.1132C829.037 46.958 829.564 46.7423 830.082 46.4727C830.082 46.4727 830.323 45.9238 830.434 45.6366L828.894 46.1367Z" fill="#84A17D"/>
<path d="M774.483 -22.4359L775.661 -24.9579C773.389 -24.4593 774.197 -23.6689 774.483 -22.4359Z" fill="#84A17D"/>
<path d="M829.191 49.6219L828.253 50.9902C828.503 50.7976 829.046 50.985 829.193 50.8313C829.586 50.3991 829.929 49.9449 830.211 49.4816L829.191 49.6219Z" fill="#84A17D"/>
<path d="M774.437 -22.9246C773.103 -21.8975 772.71 -21.0293 773.376 -20.2506C774.77 -21.2845 775.103 -22.146 774.437 -22.9246Z" fill="#84A17D"/>
<path d="M538.408 -329.35C537.888 -329.195 537.361 -328.98 536.843 -328.71C536.843 -328.71 536.602 -328.161 536.45 -327.842C536.991 -328.024 537.535 -328.24 538.076 -328.489C538.076 -328.489 538.297 -329.063 538.408 -329.35Z" fill="#84A17D"/>
<path d="M530.606 -326.287L533.212 -326.437C533.723 -328.446 532.301 -327.189 530.606 -326.287Z" fill="#84A17D"/>
<path d="M529.396 -330.442L529 -329.491C529.528 -329.671 530.057 -329.876 530.585 -330.106C530.585 -330.106 530.848 -330.713 530.959 -331L529.396 -330.442Z" fill="#84A17D"/>
<path d="M822.215 51.6838L821.195 51.8241C821.136 52.2654 821.13 52.6896 821.175 53.0909C821.175 53.0909 821.767 52.998 822.092 52.9895L822.215 51.6838Z" fill="#84A17D"/>
<path d="M781.11 -2.71472L779.871 -0.185944C782.185 -0.716553 781.276 -1.55096 781.11 -2.71472Z" fill="#84A17D"/>
<path d="M775.745 -9.15826C774.829 -8.45212 773.954 -7.77811 774.789 -7.21066C774.945 -7.008 776.004 -7.70233 776.643 -7.99292L775.745 -9.15826Z" fill="#84A17D"/>
<path d="M532.884 -319.969L534.123 -322.497C531.938 -322.146 532.66 -321.208 532.884 -319.969Z" fill="#84A17D"/>
<path d="M531.884 -326.869L529.3 -326.776C528.747 -324.735 530.189 -325.967 531.884 -326.869Z" fill="#84A17D"/>
<path d="M823.826 57.8315L822.805 57.9719C822.743 58.3985 822.744 58.8046 822.807 59.1812C822.807 59.1812 823.377 59.1457 823.683 59.1119L823.826 57.8315Z" fill="#84A17D"/>
<path d="M826.228 88.9599L827.448 86.4059C825.193 87.0126 826.042 87.7708 826.228 88.9599Z" fill="#84A17D"/>
<path d="M826.237 88.0246L825.018 90.5787C827.331 90.0481 826.523 89.2576 826.237 88.0246Z" fill="#84A17D"/>
<path d="M764.578 12.8861L765.756 10.364C763.484 10.8625 764.233 11.577 764.578 12.8861Z" fill="#84A17D"/>
<path d="M826.179 93.0342L825.181 93.1171C825.123 93.5583 825.116 93.9827 825.161 94.3839C825.161 94.3839 825.773 94.3163 826.079 94.2825L826.179 93.0342Z" fill="#84A17D"/>
<path d="M772.435 27.1376L773.654 24.5835C771.341 25.1141 772.191 25.8724 772.435 27.1376Z" fill="#84A17D"/>
<path d="M763.511 15.0393C764.845 14.0122 765.197 13.1765 764.531 12.3979C763.178 13.3997 762.803 14.2928 763.511 15.0393Z" fill="#84A17D"/>
<path d="M820.008 88.9876L818.734 88.7986C818.832 88.9253 818.324 89.5587 818.443 89.6279C818.791 89.7851 819.184 89.8896 819.612 89.9387L820.008 88.9876Z" fill="#84A17D"/>
<path d="M772.43 26.6168C771.055 27.676 770.703 28.5121 771.369 29.2908C772.722 28.289 773.096 27.3955 772.43 26.6168Z" fill="#84A17D"/>
<path d="M764.044 23.8328C764.492 24.4155 764.883 24.9227 766.057 23.7757C766.391 23.5189 766.047 22.8144 766.002 22.3245L764.044 23.8328Z" fill="#84A17D"/>
<path d="M817.709 98.5894L820.293 98.4962C820.846 96.4557 819.404 97.6872 817.709 98.5894Z" fill="#84A17D"/>
<path d="M764.846 29.2697L766.043 26.773C763.73 27.3036 764.58 28.062 764.846 29.2697Z" fill="#84A17D"/>
<path d="M818.349 98.2982C817.745 97.5128 816.849 97.5567 815.513 98.6666C816.076 99.4841 816.869 99.4791 818.349 98.2982Z" fill="#84A17D"/>
<path d="M814.349 93.1049C813.824 93.2514 813.291 93.4583 812.764 93.7198C812.764 93.7198 812.481 94.3009 812.39 94.6134C812.926 94.4227 813.463 94.1979 813.997 93.941C813.997 93.941 814.238 93.3921 814.349 93.1049Z" fill="#84A17D"/>
<path d="M764.775 28.3154L763.597 30.8374C765.946 30.4402 765.041 29.5231 764.775 28.3154Z" fill="#84A17D"/>
<path d="M767.097 38.3952L766.742 39.3141C767.262 39.1588 767.789 38.9433 768.307 38.6737C768.307 38.6737 768.548 38.1247 768.659 37.8375L767.097 38.3952Z" fill="#84A17D"/>
<path d="M762.15 34.8176L761.212 36.1859C761.518 36.1521 762.005 36.1808 762.111 36.0592C762.51 35.6144 762.866 35.1505 763.171 34.6773L762.15 34.8176Z" fill="#84A17D"/>
<path d="M819.912 152.477C821.245 151.45 821.597 150.614 820.931 149.835C819.578 150.837 819.204 151.731 819.912 152.477Z" fill="#84A17D"/>
<path d="M819.867 151.987L818.648 154.541C820.961 154.01 820.153 153.22 819.867 151.987Z" fill="#84A17D"/>
<path d="M820.679 158.991L821.075 158.04C820.555 158.196 820.028 158.411 819.51 158.681C819.51 158.681 819.269 159.23 819.117 159.549L820.679 158.991Z" fill="#84A17D"/>
<path d="M805.286 165.64C804.328 166.379 803.495 167.021 804.33 167.588C804.486 167.791 805.545 167.096 806.184 166.806L805.286 165.64Z" fill="#84A17D"/>
<path d="M819.899 205.811L822.525 205.686C823.036 203.678 821.594 204.909 819.899 205.811Z" fill="#84A17D"/>
<path d="M213.484 373.333C214.404 373.214 215.338 372.456 216.313 373.762C216.172 374.416 216.172 375.159 215.934 375.561C214.139 378.128 212.42 380.791 210.67 383.458C208.473 386.206 206.128 388.655 203.656 390.786L201.799 395.854L194.877 402.904C194.658 403.013 194.42 403.044 194.18 402.995L192.769 402.807C192.244 401.496 191.751 400.181 191.219 398.818C189.757 400.97 187.349 401.548 186.905 405.583L189.621 406.875C189.505 407.473 189.511 408.268 189.266 408.618C188.07 410.099 186.944 411.715 185.896 413.458C185.092 415.126 184.056 416.453 182.854 417.353C181.439 418.327 180.277 419.966 179.501 422.085C178.678 424.684 176.567 424.322 175.945 426.736C175.323 429.151 174.237 427.488 173.39 427.917C173.38 426.832 173.237 425.733 172.97 424.682C172.685 423.977 171.94 423.702 171.5 423.547C171.082 422.063 171.06 420.157 169.875 421.955C170.391 422.561 170.935 423.094 171.5 423.547C171.646 425.065 171.842 426.58 172.089 428.085C170.907 427.921 170.872 429.888 170.251 430.817C169.63 431.746 169.588 433.661 168.374 433.5C167.917 431.968 168.584 429.654 166.947 428.965C166.701 432.285 166.701 432.285 168.374 433.5C168.736 435.044 168.271 435.688 167.55 436.1L166.279 436.742L164.273 441.405L159.769 441.989C159.219 443.582 158.597 445.098 157.907 446.527C157.214 447.326 156.474 448.025 155.696 448.618C152.192 452.679 148.332 455.991 145.125 460.597C143.976 462.179 142.126 460.35 141.371 462.729C140.615 465.108 138.389 464.601 137.898 467.529C137.407 470.457 135.648 469.571 134.818 471.376C133.988 473.181 132.042 473.593 131.384 476.224C130.726 478.855 128.422 478.253 127.853 480.819C123.841 480.969 122.146 486.546 117.624 489.466L113.184 490.042L111.891 492.756L101.648 494.085L99.7372 491.787L96.883 492.158C96.4476 491.714 96.1147 491.035 95.9545 490.264C95.7943 489.493 95.8193 488.691 96.0243 488.026C99.7709 469.93 100.254 468.436 103.93 460.48C103.799 459.72 103.7 458.953 103.632 458.185C103.585 457.82 103.875 457.57 104.149 456.951L106.781 456.609C107.003 456.581 107.146 456.191 107.316 456.01C107.419 454.564 107.553 453.115 107.631 451.726L109.121 451.532L114.198 440.955C117.145 440.307 116.784 434.042 119.6 432.881C119.825 432.799 120.059 432.769 120.298 432.791L122.792 427.163L126.028 419.795C128.384 419.807 128.78 416.149 129.855 413.994C130.929 411.839 131.656 408.987 133.713 408.19C134.474 408.091 134.715 405.726 135.354 404.688C137.077 401.812 137.619 397.287 140.202 395.573C142.785 393.858 142.432 387.911 145.42 387.576L152.031 371.92L153.712 371.702C155.349 367.673 157.705 364.597 160.523 362.809L164.548 352.58L165.753 352.424C167.708 349.094 168.494 344.218 170.857 342.055C173.221 339.892 173.898 335.667 175.621 332.791C175.777 332.506 175.83 331.916 176.02 331.891C178.177 331.611 178.48 327.488 179.951 326.395C181.121 325.361 182.131 323.953 182.927 322.243C184.774 319.086 185.447 314.331 188.257 312.375C190.505 310.811 190.487 304.713 193.462 304.274L198.927 291.472C202.384 291.023 202.032 284.333 204.986 282.995C207.365 281.944 207.051 275.301 210.243 275.046C211.651 271.24 213.37 267.793 215.36 264.782C217.328 261.721 219.043 258.26 220.471 254.465C222.09 251.285 223.432 247.716 224.929 244.34L229.728 233.109L231.504 232.879C231.545 231.706 231.295 229.776 231.739 228.976C233.793 225.421 233.563 219.67 235.809 216.355L231.187 213.295L227.445 213.78L225.503 211.487L215.355 212.803L214.459 215.094L205.706 216.23L204.558 218.819L200.531 219.342L198.89 222.1L193.466 222.804L191.952 225.547L187.893 226.073L186.473 228.804L182.414 229.33L181.122 232.044L178.299 232.41L177.007 235.124L174.184 235.49L172.871 238.047C171.571 238.216 170.018 237.675 169.224 238.521C167.862 240.291 166.206 241.435 164.4 241.852C162.912 245.545 159.714 245.748 158.317 249.642L155.399 250.021L154.358 252.437L151.228 253.161C150.703 255.828 149.217 255.809 147.269 255.956C146.718 257.791 145.972 259.429 145.06 260.804C144.186 261.766 142.955 261.979 142.501 263.947L138.22 264.503C136.338 268.141 133.37 269.375 131.5 272.853C128.877 272.027 127.761 276.839 124.687 276.018L123.62 281.461L119.656 281.975C118.988 285.775 116.629 286.982 115.036 289.364C114.446 290.289 113.309 290.224 111.993 290.766C109.749 295.23 106.933 298.836 103.697 301.39C101.774 303.129 100.076 305.391 98.6655 308.09C97.6153 309.732 96.4185 311.117 95.105 312.211L90.8778 313.184L90.8281 317.275C90.2144 317.495 89.6164 317.785 89.0383 318.144C88.6598 318.458 88.528 319.43 88.1631 319.848C87.5069 320.453 86.822 320.985 86.1124 321.44L84.305 325.653C83.1423 327.13 80.7399 325.267 80.2217 328.729C77.7524 330.385 75.6413 333.021 74.0614 336.423C73.191 337.964 72.1234 339.183 70.9155 340.014C68.79 341.775 66.8591 344.041 64.9327 346.094C62.6392 347.796 60.7659 350.553 59.5174 354.064C57.3572 355.067 55.5251 357.154 54.2638 360.049C52.9349 362.98 50.4475 363.939 49.569 367.607C47.4065 366.349 47.6686 372.097 45.4993 370.787L42.2451 378.264C39.6632 377.75 38.2345 380.906 36.3559 382.582C34.3306 383.919 32.5534 385.955 31.1342 388.563C29.8392 391.755 27.4718 392.645 26.247 395.881C25.0222 399.116 22.4103 399.614 21.7809 403.461L17.3409 404.038L11.7125 417.073L8.54112 417.485L8.21287 421.665L3.26794 426.549L3.6064 429.158C1.64799 430.586 -0.0882436 432.608 -1.52022 435.127C-2.66342 438.245 -5.20944 438.258 -5.96992 441.592C-6.13562 442.303 -6.41932 443.347 -6.76817 443.393C-9.21012 443.709 -9.3167 448.603 -11.2922 449.284C-13.2678 449.964 -13.0612 453.544 -15.5309 455.138L-15.9115 455.187C-16.8956 457.743 -17.9783 460.186 -19.1542 462.503C-20.3309 464.618 -20.5387 467.987 -22.9083 468.613C-24.3671 468.802 -24.229 473.345 -26.1681 473.809C-28.1073 474.273 -27.8423 478.8 -30.0897 479.622C-31.6733 480.093 -32.9023 482.798 -34.5047 484.863L-36.9784 485.184L-38.2709 487.897L-41.0617 488.259L-42.336 490.865C-44.046 490.609 -45.6121 492.457 -47.3235 490.451C-47.2593 488.958 -45.9747 488.42 -46.6623 486.599C-45.79 486.115 -44.6327 486.336 -45.9137 484.168C-46.2015 484.941 -46.4517 485.753 -46.6623 486.599C-47.3246 486.628 -47.9809 486.713 -48.6286 486.855L-51.2522 483.535L-49.7146 479.729L-48.0755 481.426C-46.5836 479.543 -44.9904 477.865 -43.3095 476.405C-42.3306 475.748 -42.1328 474.29 -41.4415 473.404C-40.7502 472.519 -42.0778 468.501 -39.731 468.197C-38.843 468.081 -38.2144 465.719 -37.4956 464.3C-36.7769 462.881 -34.9738 462.859 -34.4154 460.453C-33.8585 458.517 -33.2159 456.661 -32.4919 454.899L-28.9716 454.442L-28.8111 450.708C-28.005 448.224 -26.9574 445.997 -25.7024 444.099L-21.8416 446.516C-20.3774 444.628 -21.4229 442.536 -21.4602 440.26C-21.2244 439.593 -21.0311 438.348 -20.528 437.753C-18.796 436.1 -17.3552 433.815 -16.3025 431.052C-14.1143 430.768 -13.5508 427.406 -12.4126 425.243C-12.0182 424.555 -11.0578 424.749 -10.6317 424.057C-9.17636 421.853 -8.71027 418.238 -6.56905 416.847C-4.42782 415.455 -4.41375 410.096 -2.00316 409.041C0.407426 407.985 -0.0973392 402.853 2.55266 403.146C3.51191 401.437 4.34767 399.551 5.0471 397.518C5.64399 395.16 7.51008 395.872 8.19749 393.714C8.8849 391.557 9.35033 389.428 11.2075 389.823C11.5803 387.229 13.3921 387.524 14.2809 385.924C15.0183 384.14 15.97 382.633 17.0896 381.475C19.2815 379.92 21.2327 377.71 22.853 374.946C24.2838 372.055 26.5607 370.964 27.747 367.681C28.4509 365.442 29.6681 363.797 31.1764 363.046C32.8573 362.827 33.0106 359.784 34.5146 359.695C36.0187 359.606 35.9792 357.065 36.8337 355.947C37.3517 355.31 37.9032 354.742 38.4836 354.247C39.6189 353.305 40.184 350.95 41.7583 350.905C42.8511 348.197 44.2854 345.922 45.9838 344.204C46.9698 342.856 47.4238 340.888 49.0052 340.152C50.5866 339.417 50.4118 335.833 52.2968 334.952C53.4545 334.43 53.8345 331.145 54.9063 330.211C55.9782 329.276 57.0361 328.98 57.37 327.08L60.5414 326.668C61.5616 324.373 62.8328 322.416 64.3043 320.876C65.9428 319.337 67.5338 317.434 69.204 315.891C70.8741 314.348 70.7788 310.382 73.1662 310.391C74.2413 307.493 76.3436 306.796 77.8713 304.901C79.3989 303.005 81.0419 301.254 82.5628 299.306C84.3343 297.927 85.9222 296.075 87.268 293.816C89.2021 294.307 89.3553 291.264 90.3096 289.92C91.1237 288.786 92.008 287.784 92.9522 286.925C94.6515 285.402 96.2572 283.651 97.7547 281.688C99.1191 280.026 100.174 277.714 101.645 275.879C107.31 269.84 112.922 263.383 118.816 257.367C119.968 255.735 121.383 254.624 122.943 254.127C124.084 253.979 125.001 251.844 126.161 250.845C127.321 249.846 128.356 246.635 129.713 246.406C131.528 245.99 133.185 244.807 134.523 242.971C135.928 241.307 137.542 240.109 139.288 239.435C140.834 238.162 142.215 236.479 143.382 234.449C144.874 233.046 146.297 231.48 147.642 229.759C148.959 227.731 151.817 230.119 152.233 225.874C154.817 227.395 155.703 223.037 157.794 222.501C159.83 221.951 161.564 220.156 162.655 217.468C165.434 218.009 166.707 212.911 169.622 213.752L170.896 211.147L173.719 210.781L175.011 208.067L177.834 207.701L178.843 205.289L184.646 204.536L185.277 203.181C185.395 202.848 185.517 202.301 185.676 202.281C187.832 202.001 189.229 199.592 191.107 198.659C192.089 198.372 193.097 198.241 194.12 198.268L195.433 195.711L199.619 195.168L200.911 192.454L205.193 191.898L206.485 189.185L213.652 188.255L214.618 186.008L226.574 184.456L227.966 186.238L229.263 184.054L231.031 185.999L235.408 185.431L237.35 187.725L240.204 187.355L246.434 195.351L248.525 211.469C247.576 216.578 246.704 221.04 245.941 225.595C245.71 228.1 245.395 230.567 244.997 232.984C244.297 235.017 243.462 236.903 242.502 238.612C241.9 239.755 241.383 241.013 240.958 242.366C240.722 243.704 240.601 245.111 240.598 246.55L238.981 246.759C237.686 249.208 237.222 253.087 234.583 252.634L235.037 256.129C232.4 262.146 229.558 268.084 227.07 274.507C225.721 278.023 223.088 279.108 221.899 282.869C220.662 286.537 219.181 289.945 217.48 293.042C216.523 294.864 214.851 295.399 214.007 297.842C213.494 299.871 212.58 301.509 211.391 302.531C210.058 303.447 209.294 306.251 208.325 308.233C207.394 309.98 206.56 311.862 205.831 313.861C205.144 316.018 203.239 315.258 202.719 317.712C201.904 321.371 198.742 321.358 198.094 325.313C197.447 329.269 194.77 328.768 193.76 331.923C192.588 335.198 191.254 338.296 189.771 341.192C189.11 341.998 188.366 342.631 187.564 343.069L183.532 352.503C180.644 353.356 180.245 358.234 178.368 360.917C177.299 360.632 176.814 361.862 176.188 363.004C175.505 363.809 174.738 364.427 173.911 364.837L174.249 367.445C173.441 369.672 171.473 369.662 170.783 372.297C170.292 374.025 169.623 375.579 168.801 376.904C168.563 377.306 167.562 376.8 167.406 377.085C165.875 381.686 162.702 383.583 160.888 387.743C159.176 387.966 158.905 390.6 158.086 392.244C157.268 393.888 155.742 392.813 155.24 395.159C154.738 397.505 152.858 398.174 151.806 400.007L152.056 401.937C150.913 405.085 149.363 407.755 147.497 409.795C145.657 411.519 145.385 416.381 142.789 417.249C142.408 417.298 142.272 418.483 141.952 419.001C139.708 422.581 139.256 428.792 135.727 430.417L130.583 442.223L125.91 446.967C125.622 448.967 125.229 451.404 125.044 453.709C124.178 454.246 123.014 453.972 124.302 456.192C124.578 455.392 124.826 454.563 125.044 453.709C125.995 453.586 127.137 453.438 128.596 453.248L129.98 448.507C131.708 447.911 132.798 447.611 133.822 447.054C134.044 447.025 133.984 445.813 134.054 445.114L137.416 444.678C142.348 437.461 148.944 434.112 153 425.365L155.728 425.011L156.995 422.353L160.325 421.921L162.106 416.015L165.677 418.681C167.851 418.811 169.97 418.302 171.932 417.179L169.96 414.412C170.672 412.198 172.208 413.59 173.549 412.249L174.549 410.263L177.72 409.851L177.709 406.034C175.911 404.358 174.588 405.59 173.183 405.454C173.129 405.037 173.041 404.359 173.034 404.307C175.111 401.916 177.218 399.521 179.346 397.282C179.632 397.245 180.225 397.592 180.728 397.739C180.792 400.224 179.48 401.296 178.963 403.272C180.301 404.637 181.003 404.333 182.633 401.735L185.329 401.385C185.669 399.538 187.124 398.819 186.742 396.375L189.555 393.199L193.815 397.95C196.768 396.296 199.088 392.839 200.328 388.247C197.914 385.618 195.212 383.91 192.459 383.275C192.335 382.281 192.41 381.291 192.674 380.454C192.937 379.616 193.374 378.976 193.92 378.63C195.971 377.781 196.658 374.88 197.715 372.834L200.569 372.463L201.787 369.918C203.682 371.847 205.014 375.652 208.104 373.872C207.568 377.442 207.259 379.286 206.966 381.499C206.075 382.091 204.565 380.643 204.365 383.321C206.434 384.113 206.434 384.113 206.966 381.499L209.217 381.206C210.534 379.179 211.078 375.661 213.298 375.373C213.467 375.192 213.439 373.976 213.484 373.333ZM140.696 458.52C141.332 457.96 142.885 460.729 143.004 457.425C142.112 456.268 141.32 456.371 140.822 458.504L140.696 458.52ZM200.797 378.692C201.004 379.071 201.259 379.371 201.541 379.565C201.823 379.76 202.121 379.842 202.409 379.805C202.696 379.768 202.964 379.612 203.186 379.352C203.409 379.092 203.58 378.736 203.683 378.318C203.481 377.972 203.236 377.7 202.969 377.525C202.702 377.35 202.421 377.276 202.15 377.312C201.879 377.347 201.626 377.489 201.412 377.727C201.199 377.964 201.031 378.29 200.924 378.676L200.797 378.692ZM197.798 382.423L198.191 381.47C197.853 381.202 197.502 380.999 197.145 380.864C197.145 380.864 196.888 381.374 196.764 381.656L197.798 382.423ZM164.337 425.75L164.984 426.514C165.112 425.987 165.191 425.423 165.219 424.84C165.219 424.84 164.865 424.355 164.673 424.115L164.337 425.75ZM159.006 427.661L158.614 428.614C158.961 428.892 159.323 429.094 159.692 429.217C159.692 429.217 159.948 428.706 160.073 428.425L159.006 427.661ZM-41.8365 484.276C-41.8772 483.963 -42.2937 483.487 -42.4138 483.555C-42.7316 483.775 -43.0186 484.081 -43.2637 484.461C-43.0713 484.701 -42.8132 485.198 -42.6931 485.13C-42.3821 484.908 -42.0945 484.621 -41.8365 484.276Z" fill="#416262"/>
<path d="M709.695 276.799L709.446 279.112L705.229 279.659L703.778 282.394L692.392 283.871L691.036 286.593L686.819 287.14C686.119 290.201 683.614 289.784 682.856 292.64C681.045 292.345 679.854 294.356 678.606 295.419C676.889 296.257 675.055 296.585 673.185 296.388L672.013 299.033L667.668 299.597L666.595 302.017L660.95 302.749L659.594 305.471L651 306.587L649.739 309.296L632.297 311.56L631.337 313.859L624.075 314.801L622.853 317.559L615.622 318.497L614.432 321.251L607.233 322.185L606.042 324.938L598.685 325.893L597.644 328.309L593.394 328.86L592.102 331.574L589.184 331.953L588.538 333.681C587.085 335.407 585.237 334.586 583.68 335.266L582.689 337.569L576.886 338.322L575.67 341.132C574.529 341.28 572.638 340.624 571.801 341.634C570.354 343.185 568.747 344.359 567.029 345.117C565.656 346.518 564.376 348.121 563.201 349.91L557.81 350.61L556.517 353.324L553.917 353.661L552.643 356.266C551.184 356.456 549.363 355.843 548.899 358.98L543.603 359.667L538.825 365.591L535.051 366.081L533.727 368.799L529.478 369.35L528.217 372.06L525.331 372.434L524.315 374.794L519.771 375.808L518.73 378.223C517.416 378.185 516.121 378.353 514.861 378.726C513.608 379.259 513.088 381.714 511.412 381.719C510.46 381.843 509.689 383.852 508.518 384.269C507.347 384.686 505.632 384.644 505.062 387.21L502.208 387.581L500.916 390.295L498.093 390.661L496.801 393.375L492.71 393.905C492.159 394.879 491.746 396.417 491.256 396.375C489.408 396.296 488.275 398.247 487.033 399.363C485.791 400.478 484.511 400.061 483.434 401.951C482.358 403.841 480.736 402.779 479.171 403.141L477.94 405.581L472.263 406.318L471.002 409.028L460.854 410.345L458.132 404.28L458.958 401.945L457.812 400.821C456.021 399.939 455.827 406.648 453.317 402.465L454.265 400.326L453.162 391.824L454.384 384.346L456.199 383.421L456.412 379.84L459.573 371.897C458.581 367.73 462.135 366.792 461.34 362.651C461.317 362.455 461.318 362.257 461.344 362.072C461.37 361.886 461.42 361.716 461.49 361.571C462.681 358.818 463.985 355.944 465.055 353.259C466.126 350.574 465.276 346.017 467.542 345.086C467.763 341.822 466.449 338.651 468.173 336.783C466.365 334.525 465.925 330.391 463.905 328.744L457.68 326.741L454.94 324.02L453.056 327.394L440.117 329.073L439.101 331.433L433.298 332.186L432.082 334.996C431.047 335.284 429.986 335.422 428.911 335.407C427.405 335.231 427.344 337.997 426.058 338.27C424.771 338.543 423.647 338.583 422.316 338.756L421.003 341.313L416.817 341.856L415.524 344.57L412.702 344.936L411.822 346.854C410.507 348.403 408.691 347.578 407.096 348.209L406.311 350.115C405.169 351.748 403.489 350.481 401.801 352.132C400.956 355.318 398.047 353.521 396.001 354.9C395.534 359.257 391.411 355.071 391.336 359.961L386.833 360.545L385.509 363.263L382.718 363.625L381.426 366.339L376.034 367.038C374.839 368.812 373.549 370.416 372.175 371.836C370.622 373.045 368.749 373.023 367.441 375.367C366.802 376.405 365.094 375.672 363.731 375.849L362.411 378.354L358.256 378.893L356.932 381.61L352.683 382.162L351.422 384.872L348.409 385.263L347.117 387.976L344.389 388.33L342.97 391.06C339.555 389.594 337.711 394.766 334.633 394.9C333.677 398.472 331.309 396.87 329.467 397.586L328.186 400.139L325.427 400.497L324.134 403.211L321.28 403.581L320.289 405.884L316.008 406.44L314.817 409.194L309.014 409.947L307.83 412.752L302.026 413.505L300.953 415.925L296.577 416.493L294.771 414.5L291.948 414.866L283.928 404.503C284.614 401.338 279.907 400.358 282.016 396.477C282.958 396.779 283.478 399.046 284.597 398.476C285.771 400.817 285.771 400.817 287.539 399.526C286.661 396.988 285.571 398.774 284.597 398.476L285.501 394.009L284.905 389.419L287.083 387.811C287.365 385.759 287.749 383.004 288.101 380.253C288.101 380.253 288.013 379.575 287.696 378.873L285.495 378.31L284.16 374.983L286.858 370.92C288.523 371.075 290.523 374.316 292.676 372.764L294.151 376.922C294.151 376.922 294.597 377.129 294.658 376.856L302.944 357.959C302.944 357.959 302.843 357.177 302.795 356.812C303.3 356.922 303.8 356.867 304.264 356.648C304.729 356.429 305.147 356.052 305.495 355.54C305.842 355.028 306.111 354.391 306.285 353.67C306.458 352.948 306.533 352.157 306.504 351.345L309.39 350.97C309.44 354.093 307.954 355.559 307.044 357.746C306.135 359.932 305.891 362.032 304.034 361.637L300.438 369.954L294.988 382.382L292.777 396.407L297.329 399.423L300.119 399.061L301.135 396.701L306.939 395.948L308.061 393.416L313.326 392.732L318.04 386.817L321.846 386.323L323.145 383.661L325.004 385.807C327.853 384.265 330.154 381.101 331.516 376.847L334.45 379.33L335.606 377.058L339.856 376.507L341.099 373.906L342.561 375.732L349.974 367.503L355.239 366.82C355.264 365.278 355.281 364.163 355.329 363.042C356.549 360.763 358.5 362.631 360.433 360.63L360.937 359.291C362.722 357.893 365.06 358.756 367.205 357.894L368.393 355.619L369.74 357.3C371.145 356.694 371.167 353.88 373.086 352.517L377.97 351.883L379.294 349.165L386.524 348.227L389.695 340.602L396.799 339.68L398.377 336.93L402.737 335.992L403.728 333.689L410.325 332.833L415.8 326.819C417.002 324.944 418.654 323.954 420.438 324.042C421.643 323.886 422.849 323.729 424.054 323.573L428.457 318.493L430.019 320.094C431.133 320.404 432.231 320.112 433.137 319.265C433.153 318.149 433.201 317.029 433.218 315.913C433.589 315.546 433.927 314.919 434.308 314.87C438.906 314.273 443.504 313.676 448.071 313.084L449.346 310.478C450.676 309.298 451.508 311.736 452.541 312.238L453.774 310.063L455.436 312.181L465.616 310.86L467.239 312.93L471.425 312.387C473.131 315.348 475.975 313.653 477.234 317.892C478.008 320.125 477.755 323.393 479.881 324.868L482.115 342.081C480.265 344.231 480.44 348.557 479.29 351.624C478.14 354.69 476.641 357.802 475.301 360.893C473.961 363.984 472.498 366.879 471.344 370.158C470.189 373.437 469.256 377.43 468.046 381.777C468.25 383.342 468.724 384.766 470.492 384.218L471.811 381.713L477.424 380.985L478.749 378.267L481.539 377.905L482.832 375.191L485.718 374.817L486.999 372.264C491.253 370.082 495.279 367.104 499.004 363.386L502.841 362.888C504.188 361.433 505.466 359.832 506.669 358.095C507.803 356.145 509.881 357.997 510.931 355.155C511.981 352.314 514.282 354.137 515.574 351.423C516.393 349.779 518.888 352.107 520.054 349.41C521.219 346.713 523.137 348.32 524.655 347.593C525.128 346.574 525.754 345.776 526.486 345.258C527.218 344.74 528.036 344.517 528.878 344.605L530.184 341.996L533.007 341.629L534.3 338.916L538.581 338.36L539.422 336.395C540.866 335.432 542.479 335.078 544.125 335.36L546.187 337.585L546.167 333.451L547.77 329.901L551.956 329.358L553.28 326.64L556.071 326.278L557.364 323.564L561.645 323.009L562.668 320.702L565.778 319.821L566.973 317.597C568.654 317.379 570.561 317.662 571.286 316.294C571.705 315.434 572.258 314.774 572.9 314.368C573.543 313.962 574.256 313.822 574.982 313.959C576.73 314.262 577.139 311.451 578.413 311.073C579.686 310.696 581.299 310.699 581.868 308.132L586.181 307.572L587.442 304.863L590.328 304.488L591.312 302.133L597.116 301.38L598.338 298.622L604.11 297.873L605.332 295.116L612.563 294.177L613.629 291.705L623.65 290.405L625.006 287.683L629.129 287.148L630.396 284.491L640.513 283.178L641.336 281.321C641.493 281.035 641.629 280.593 641.787 280.573L657.644 278.515L658.635 276.212L666.151 275.236L668.354 277.549L671.119 274.008L673.811 276.364L676.475 276.018L677.661 273.477L689.205 271.979L690.44 269.326C691.668 269.591 692.767 268.123 694.071 269.969L693.021 272.81L697.512 277.85L698.771 270.154L696.895 267.375C697.102 265.491 698.044 265.794 698.941 265.995C700.242 267.577 699.759 269.814 700.256 271.659L702.06 274.13L699.416 276.86C701.356 278.889 702.904 277.15 704.677 277.397L705.79 270.57L702.885 269.302C703.904 267.84 705.228 267 706.669 266.902L706.716 263.289C707.281 261.678 708.219 261.45 709.445 263.2L708.429 265.56L708.855 270.331L707.886 273.798C708.23 275.451 708.453 277.172 709.695 276.799ZM291.047 383.318C292.114 382.596 293.251 382.661 291.99 380.65C291.717 381.343 291.524 382.121 291.418 382.952C291.209 382.918 291.005 382.968 290.824 383.097C290.643 383.226 290.491 383.43 290.381 383.691C290.271 383.952 290.207 384.262 290.195 384.594C290.182 384.925 290.221 385.267 290.309 385.589C289.528 387.918 288.865 390.363 288.324 392.901C288.619 393.841 288.953 394.755 289.323 395.635L291.101 391.692L290.309 385.589C291.299 385.513 291.667 384.617 291.047 383.318Z" fill="#416262"/>
<path d="M339.468 253.239L341.656 252.955C343.082 254.255 342.669 256.537 343.155 258.542L342.193 261.319L345.77 268.758C344.818 271.109 342.66 269.639 341.294 270.293C339.203 273.347 337.924 277.612 337.67 282.379L338.985 284.065L337.978 286.742L339.699 289.064L340.328 293.915C339.12 296.035 338.554 299.131 336.728 300.96L334.251 298.523L333.026 301.015L331.409 301.225L330.471 298.218L331.652 295.147L327.882 292.931L338.454 268.54C338.42 268.279 338.325 267.549 338.034 266.791C335.976 264.353 335.659 267.63 334.737 268.969L330.487 269.521L329.571 271.655C327.915 272.653 326.028 272.693 324.2 271.769C325.024 268.9 326.464 266.694 328.29 265.51L323.497 264.859L322.833 261.232L324.723 260.138L326.71 262.532L328.835 262.257L329.659 264.378L337.397 263.373L337.73 258.981L339.944 260.391C340.489 257.88 339.614 255.607 339.468 253.239ZM332.857 290.27L333.473 291.039C333.597 290.502 333.686 289.94 333.739 289.36C333.739 289.36 333.354 288.88 333.162 288.64L332.857 290.27Z" fill="#416262"/>
<path d="M225.418 356.934L224.207 359.531L221.289 359.91L218.251 353.144C217.891 347.886 221.073 348.057 222.366 345.343C222.921 344.157 224.536 344.425 225.759 344.903C226.131 347.772 224.757 346.624 224.184 347.176C223.611 347.728 223.939 348.268 223.7 349.413C226.248 349.666 228.552 348.784 230.858 348.909C231.023 353.661 227.542 352.681 227.466 356.562C227.45 356.936 226.116 356.844 225.418 356.934Z" fill="#416262"/>
<path d="M187.017 396.5C185.62 396.417 184.34 397.485 182.902 396.345C182.868 396.084 182.624 395.692 182.793 395.511L185.22 389.361L188.392 388.95L190.451 383.697L192.671 383.409C193.26 386.659 193.527 389.975 193.461 393.225L191.265 390.964C190.043 392.236 187.725 389.779 186.519 392.906L187.017 396.5Z" fill="#416262"/>
<path d="M257.457 316.072L253.5 315.896L252.782 312.595L256.419 308.569C257.391 308.132 258.455 308.16 259.493 308.648L258.906 312.331L261.608 313.518L261.953 316.178L258.4 320.352L257.457 316.072Z" fill="#416262"/>
<path d="M291.679 294.02C291.609 294.719 291.588 296.048 291.429 296.068C289.239 296.088 288.935 301.696 285.847 299.021L283.932 304.891L278.445 305.603C278.516 304.905 278.444 303.853 278.702 303.607C280.094 302.154 281.589 301.005 283.051 299.595C283.337 299.558 283.231 298.246 283.301 297.547L286.885 297.082L288.096 294.485L291.679 294.02Z" fill="#416262"/>
<path d="M283.303 297.549L279.561 298.035L278.174 294.555L281.873 288.771L282.696 291.634L285.663 293.371C285.582 295.981 282.516 293.726 283.303 297.549Z" fill="#416262"/>
<path d="M320.736 324.834L323.653 324.456C323.193 328.865 320.952 331.224 319.927 334.752C318.282 335.496 317.392 334.603 317.23 331.866C318.609 329.566 320.89 329.004 320.736 324.834Z" fill="#416262"/>
<path d="M253.48 329.9C255.674 327.088 258.076 324.697 260.648 322.765C260.806 322.744 261.057 323.189 261.275 323.373C261.497 327.322 259.243 327.349 258.019 329.099C256.795 330.849 255.692 331.788 254.345 333.342L253.48 329.9Z" fill="#416262"/>
<path d="M309.16 326.335C308.788 323.467 310.652 323.172 310.549 321.382C312.724 320.251 314.275 325.247 316.073 322.945L316.391 325.397L314.392 327.884L312.712 325.874L309.16 326.335Z" fill="#416262"/>
<path d="M316.677 275.925L315.274 279.025L314.231 274.97C315.691 272.552 317.641 274.156 319.658 272.303C319.977 271.784 320.4 269.077 322.338 270.841C322.432 273.057 321.385 273.935 320.927 275.374L316.677 275.925Z" fill="#416262"/>
<path d="M323.285 252.791C326.139 252.421 328.264 252.145 330.912 252.173L329.088 256.759L326.718 254.892C324.935 254.327 325.15 258.967 323.223 257.785C322.995 257.588 322.773 257.368 322.558 257.129C322.079 255.175 323.614 255.082 323.285 252.791Z" fill="#416262"/>
<path d="M303.967 275.138C301.444 274.829 304.073 279.685 302.114 279.993C301.276 279.253 301.497 277.474 301.117 276.038C300.619 274.528 300.042 273.076 299.393 271.7L300.607 268.626C301.97 268.449 302.404 271.044 303.459 271.226L303.967 275.138Z" fill="#416262"/>
<path d="M302.477 354.361L302.132 351.701L305.379 344.914L307.303 347.317L306.504 351.345L304.665 351.584L302.477 354.361Z" fill="#416262"/>
<path d="M245.856 340.493C245.24 344.445 242.751 345.139 241.175 347.412C240.994 347.754 240.31 347.206 239.744 347.068C239.446 344.773 240.749 344.126 241.092 342.544C243.198 343.862 243.037 338.154 245.209 339.729C245.436 339.954 245.653 340.21 245.856 340.493Z" fill="#416262"/>
<path d="M291.68 294.021C291.633 293.656 291.545 292.977 291.538 292.925C293.244 289.97 295.658 288.296 298.313 288.227C298.618 290.575 297.315 291.221 296.913 293.342L291.68 294.021Z" fill="#416262"/>
<path d="M226.744 361.695C227 366.648 223.741 366.381 222.647 369.387C222.43 369.946 221.411 369.548 220.174 369.708L221.158 366.61C221.844 364.187 224.133 364.686 224.69 362.015C224.819 361.52 226.047 361.785 226.744 361.695Z" fill="#416262"/>
<path d="M231.919 356.09C231.764 357.081 231.566 358.046 231.326 358.978C231.001 359.783 230.636 360.539 230.233 361.241L226.745 361.694C226.664 361.068 226.854 360.3 226.963 359.65C227.072 358.999 227.347 357.638 227.543 356.657L231.919 356.09Z" fill="#416262"/>
<path d="M340.433 277.831L341.892 277.642C343.493 279.29 343.075 281.784 343.28 284.357L341.49 285.226C341.125 284.79 340.807 284.253 340.556 283.645C340.305 283.037 340.126 282.37 340.027 281.683C339.929 280.995 339.914 280.301 339.984 279.64C340.054 278.979 340.206 278.364 340.433 277.831Z" fill="#416262"/>
<path d="M324.45 319.418L322.167 319.714C321.441 317.104 322.88 315.273 322.471 312.621L324.302 312.065C324.617 312.501 324.872 312.733 325.04 313.03C326.477 315.655 323.935 316.939 324.45 319.418Z" fill="#416262"/>
<path d="M268.099 316.815C267.581 318.2 266.876 319.358 266.027 320.217C265.179 321.075 264.205 321.616 263.167 321.804C262.883 319.613 264.07 318.822 264.483 317.284L268.099 316.815Z" fill="#416262"/>
<path d="M324.482 319.417L327.368 319.042C327.397 319.853 327.323 320.643 327.148 321.363C326.974 322.082 326.704 322.716 326.355 323.224C326.007 323.732 325.587 324.104 325.122 324.316C324.657 324.528 324.157 324.576 323.653 324.457C323.723 323.758 323.762 323.064 323.865 322.361C323.967 321.658 324.255 320.401 324.482 319.417Z" fill="#416262"/>
<path d="M316.072 322.947L314.271 319.256L315.811 315.715C317.47 317.568 317.004 320.439 317.531 322.758L316.072 322.947Z" fill="#416262"/>
<path d="M231.76 356.111C231.449 353.711 232.833 352.948 233.262 351.036L235.237 351.098C235.548 353.498 234.368 354.34 233.948 355.827L231.76 356.111Z" fill="#416262"/>
<path d="M322.586 304.808L323.216 309.659L320.33 310.033L319.707 305.234L322.586 304.808Z" fill="#416262"/>
<path d="M268.099 316.815C267.787 314.415 269.14 313.656 269.569 311.744L271.544 311.806C271.855 314.206 270.675 315.048 270.255 316.535L268.099 316.815Z" fill="#416262"/>
<path d="M269.725 306.737C269.413 304.337 270.766 303.578 271.227 301.662L274.172 304.727C272.68 307.149 271.079 306.243 269.725 306.737Z" fill="#416262"/>
<path d="M293.742 355.386C293.838 357.867 292.972 359.146 291.689 360.691L290.903 356.126L293.742 355.386Z" fill="#416262"/>
<path d="M298.219 287.499C299.898 285.531 299.898 285.531 302.392 286.109C301.545 289.03 299.648 287.579 298.219 287.499Z" fill="#416262"/>
<path d="M339.931 253.337C338.011 252.949 336.553 254.889 335.01 252.437C335.724 250.488 337.062 251.11 338.059 251.087C338.567 251.021 339.116 252.275 339.931 253.337Z" fill="#416262"/>
<path d="M303.967 275.138C304.973 275.432 306.063 273.646 306.94 276.184C305.148 277.53 305.148 277.53 303.967 275.138Z" fill="#416262"/>
<path d="M307.765 280.054C308.366 279.722 308.999 279.515 309.652 279.438C309.842 279.413 310.186 280.323 310.356 280.885C310.525 281.446 310.14 281.709 309.981 281.729C309.823 281.75 308.679 281.633 307.993 281.563L307.765 280.054Z" fill="#416262"/>
<path d="M295.048 284.941C294.046 286.663 293.267 286.87 292.242 285.677C292.499 282.938 293.513 283.549 295.048 284.941Z" fill="#416262"/>
<path d="M275.098 291.241C275.63 288.626 275.63 288.626 277.7 289.418C277.499 292.096 275.957 290.652 275.098 291.241Z" fill="#416262"/>
<path d="M275.1 291.242C274.562 293.805 274.562 293.805 272.524 293.008C272.693 290.335 274.234 291.779 275.1 291.242Z" fill="#416262"/>
<path d="M267.351 299.618C267.889 297.055 267.889 297.055 269.927 297.852C269.694 300.534 268.216 299.081 267.351 299.618Z" fill="#416262"/>
<path d="M320.298 310.038C319.767 312.653 319.767 312.653 317.728 311.856C317.929 309.178 319.376 310.635 320.298 310.038Z" fill="#416262"/>
<path d="M331.156 308.471C332.364 310.33 332.604 311.678 331.994 313.189C330.279 312.404 330.52 310.782 331.156 308.471Z" fill="#416262"/>
<path d="M320.734 324.832L317.848 325.207L317.53 322.755C318.141 322.46 318.799 322.375 319.465 322.504C319.963 322.864 320.341 324.035 320.734 324.832Z" fill="#416262"/>
<path d="M297.544 344.922C298.753 346.78 298.992 348.128 298.382 349.639C296.668 348.854 296.909 347.232 297.544 344.922Z" fill="#416262"/>
<path d="M328.841 262.309C329.373 259.694 329.373 259.694 331.443 260.487C331.208 262.904 329.698 261.455 328.841 262.309Z" fill="#416262"/>
<path d="M320.855 267.112L321.159 265.482C321.318 265.461 321.716 266.046 321.705 266.206C321.673 266.804 321.597 267.383 321.478 267.933L320.855 267.112Z" fill="#416262"/>
<path d="M316.559 269.79C316.288 270.144 315.993 270.448 315.678 270.7C315.678 270.7 315.293 270.22 315.1 269.98C315.371 269.626 315.666 269.322 315.982 269.07C315.982 269.07 316.367 269.55 316.559 269.79Z" fill="#416262"/>
<path d="M291.9 277.074L292.547 277.839C292.272 278.182 291.977 278.487 291.666 278.749C291.666 278.749 291.281 278.268 291.089 278.028L291.9 277.074Z" fill="#416262"/>
<path d="M285.38 282.745L286.33 280.129C287.584 282.088 286.454 282.075 285.38 282.745Z" fill="#416262"/>
<path d="M286.136 282.117L285.186 284.733C283.932 282.774 285.062 282.787 286.136 282.117Z" fill="#416262"/>
<path d="M344.953 276.874L343.938 276.263C344.063 275.981 344.186 275.435 344.319 275.471C344.688 275.593 345.05 275.796 345.397 276.074L344.953 276.874Z" fill="#416262"/>
<path d="M287.436 289.64C287.694 290.117 287.914 290.642 288.089 291.199C288.089 291.199 287.872 291.758 287.747 292.039C287.49 291.551 287.261 291.03 287.061 290.484C287.061 290.484 287.311 289.921 287.436 289.64Z" fill="#416262"/>
<path d="M267.696 299.308L266.685 302.197C265.524 299.961 266.654 299.973 267.696 299.308Z" fill="#416262"/>
<path d="M277.392 299.216L277.087 300.847C277.054 300.586 276.537 300.335 276.542 300.122C276.574 299.525 276.65 298.945 276.769 298.395L277.392 299.216Z" fill="#416262"/>
<path d="M262.069 306.139L261.765 307.77C261.573 307.529 261.215 307.258 261.22 307.045C261.247 306.461 261.326 305.898 261.454 305.37L262.069 306.139Z" fill="#416262"/>
<path d="M270.104 306.423L269.154 309.039C267.933 307.341 269.075 307.193 270.104 306.423Z" fill="#416262"/>
<path d="M278.825 305.291L277.875 307.908C276.655 306.209 277.765 306.065 278.825 305.291Z" fill="#416262"/>
<path d="M275.61 310.586L274.575 309.819C274.7 309.537 274.823 308.991 274.95 308.975C275.307 309.151 275.659 309.371 276.003 309.634L275.61 310.586Z" fill="#416262"/>
<path d="M322.215 305.175L323.159 302.506C324.419 304.517 323.251 304.457 322.215 305.175Z" fill="#416262"/>
<path d="M329.83 305.459L329.406 306.416C329.153 305.933 328.934 305.409 328.752 304.856C328.752 304.856 328.963 304.246 329.088 303.964L329.83 305.459Z" fill="#416262"/>
<path d="M334.067 304.064L333.762 305.695C333.538 305.459 333.174 305.135 333.178 304.922C333.231 304.342 333.32 303.78 333.444 303.243L334.067 304.064Z" fill="#416262"/>
<path d="M256.255 321.216L256.871 321.984C256.6 322.337 256.305 322.642 255.989 322.894C255.989 322.894 255.636 322.41 255.412 322.174L256.255 321.216Z" fill="#416262"/>
<path d="M703.569 264.387L703.145 265.343C702.889 264.842 702.667 264.301 702.484 263.732C702.484 263.732 702.702 263.173 702.827 262.892L703.569 264.387Z" fill="#416262"/>
<path d="M241.168 326.727L240.744 327.684C240.486 327.206 240.266 326.681 240.09 326.124C240.09 326.124 240.308 325.566 240.433 325.284L241.168 326.727Z" fill="#416262"/>
<path d="M328.13 316.713L329.081 314.097C330.335 316.056 329.204 316.043 328.13 316.713Z" fill="#416262"/>
<path d="M238.494 328.981L238.189 330.612C238.149 330.299 237.632 330.048 237.637 329.835C237.665 329.252 237.744 328.688 237.871 328.16L238.494 328.981Z" fill="#416262"/>
<path d="M328.509 316.4C328.725 318.069 328.39 318.962 327.368 319.041C327.113 317.324 327.487 316.48 328.509 316.4Z" fill="#416262"/>
<path d="M712.082 266.622C712.34 267.099 712.56 267.624 712.736 268.181C712.736 268.181 712.518 268.74 712.4 269.073C712.146 268.562 711.915 268.024 711.708 267.466C711.708 267.466 711.957 266.903 712.082 266.622Z" fill="#416262"/>
<path d="M715.433 274.306L713.696 272.356C714.755 270.575 714.872 272.469 715.433 274.306Z" fill="#416262"/>
<path d="M719.226 272.222L718.834 273.174C718.588 272.675 718.359 272.155 718.148 271.619C718.148 271.619 718.391 271.004 718.516 270.723L719.226 272.222Z" fill="#416262"/>
<path d="M241.968 335.372L242.591 336.193C242.32 336.546 242.025 336.851 241.709 337.103C241.709 337.103 241.356 336.618 241.132 336.382L241.968 335.372Z" fill="#416262"/>
<path d="M309.499 325.972L308.587 328.636C307.327 326.625 308.559 326.677 309.499 325.972Z" fill="#416262"/>
<path d="M317.849 325.209C317.998 326.357 318.14 327.452 317.148 327.263C316.895 327.295 316.637 326.056 316.39 325.398L317.849 325.209Z" fill="#416262"/>
<path d="M709.354 277.162L710.266 274.498C711.563 276.292 710.389 276.444 709.354 277.162Z" fill="#416262"/>
<path d="M714.94 272.99L716.702 274.883C715.65 276.716 715.501 274.826 714.94 272.99Z" fill="#416262"/>
<path d="M236.482 338.58L237.105 339.401C236.847 339.746 236.559 340.033 236.248 340.255C236.248 340.255 235.87 339.826 235.678 339.586L236.482 338.58Z" fill="#416262"/>
<path d="M212.772 358.893L213.716 356.224C214.882 358.248 213.745 358.183 212.772 358.893Z" fill="#416262"/>
<path d="M213.428 358.225L212.484 360.893C211.223 358.882 212.354 358.895 213.428 358.225Z" fill="#416262"/>
<path d="M310.158 348.694L311.109 346.077C312.363 348.036 311.327 348.011 310.158 348.694Z" fill="#416262"/>
<path d="M209.926 361.808L210.573 362.573C210.303 362.926 210.007 363.23 209.692 363.483C209.692 363.483 209.307 363.002 209.115 362.762L209.926 361.808Z" fill="#416262"/>
<path d="M294.525 353.215L295.469 350.547C296.729 352.558 295.592 352.493 294.525 353.215Z" fill="#416262"/>
<path d="M309.39 350.97C309.173 349.301 309.515 348.461 310.536 348.381C310.785 350.046 310.418 350.943 309.39 350.97Z" fill="#416262"/>
<path d="M217.151 363.31L218.186 364.078C218.027 364.098 217.938 364.905 217.805 364.869C217.447 364.735 217.096 364.531 216.759 364.263L217.151 363.31Z" fill="#416262"/>
<path d="M294.897 352.85C295.12 354.571 294.777 355.411 293.756 355.491C293.508 353.826 293.875 352.93 294.897 352.85Z" fill="#416262"/>
<path d="M302.795 356.812C302.066 356.906 301.431 356.989 301.412 355.347C301.358 354.93 302.099 354.675 302.477 354.361L302.795 356.812Z" fill="#416262"/>
<path d="M211.987 371.725L210.226 369.832C211.278 367.999 211.426 369.889 211.987 371.725Z" fill="#416262"/>
<path d="M298.384 360.089L299.302 357.477C300.563 359.488 299.426 359.423 298.384 360.089Z" fill="#416262"/>
<path d="M211.74 371.067C212.723 370.939 213.326 371.603 213.486 373.333C212.509 373.513 211.952 372.949 211.74 371.067Z" fill="#416262"/>
<path d="M218.242 370.224C218.509 370.698 218.74 371.221 218.927 371.779C218.927 371.779 218.716 372.389 218.56 372.675C218.316 372.161 218.095 371.623 217.899 371.064C217.899 371.064 218.117 370.505 218.242 370.224Z" fill="#416262"/>
<path d="M299.109 359.465L298.158 362.081C296.778 360.138 298.067 360.13 299.109 359.465Z" fill="#416262"/>
<path d="M290.339 364.95L289.94 365.85C289.682 365.373 289.462 364.848 289.286 364.291C289.286 364.291 289.504 363.732 289.629 363.451L290.339 364.95Z" fill="#416262"/>
<path d="M296.367 365.918L296.062 367.549C295.87 367.309 295.505 366.985 295.517 366.824C295.549 366.227 295.625 365.647 295.744 365.097L296.367 365.918Z" fill="#416262"/>
<path d="M172.325 408.272C172.109 406.603 172.451 405.763 173.473 405.684C173.721 407.349 173.354 408.245 172.325 408.272Z" fill="#416262"/>
<path d="M172.703 407.957L171.76 410.625C170.499 408.614 171.629 408.627 172.703 407.957Z" fill="#416262"/>
<path d="M167.176 412.336L167.569 411.383C167.827 411.861 168.047 412.386 168.223 412.943C168.223 412.943 168.005 413.501 167.887 413.835L167.176 412.336Z" fill="#416262"/>
<path d="M173.359 427.922C173.515 429.122 173.65 430.165 172.658 429.975C172.405 430.008 172.147 428.769 171.9 428.111L173.359 427.922Z" fill="#416262"/>
<path d="M134.621 445.994L132.853 444.049C133.912 442.267 134.06 444.157 134.621 445.994Z" fill="#416262"/>
</g>
<defs>
<clipPath id="clip0_401_10012">
<rect width="1060" height="376" fill="white"/>
</clipPath>
</defs>
</svg>
